<?xml version="1.0" encoding="UTF-8"?>
<svg viewBox="0 0 404.37225 362.85938" xmlns="http://www.w3.org/2000/svg">
 <g transform="matrix(1.223 0 0 1.223 -467.5 -843.44)" font-family="Adobe Caslon Pro" font-size="45.617" text-anchor="middle">
  <path d="m547.55 872.24c-88.768 0-161.25 50.61-165.31 114.08h330.63c-4.0531-63.473-76.558-114.08-165.33-114.08z" fill="#3771c8"/>
  <path transform="translate(605.48 134.13)" d="m-57.918 795.74-24.394-42.252-24.394-42.252h97.578l-24.394 42.252-24.394 42.252z" fill="#c87137" fill-opacity=".99608"/>
  <path d="m594.08 838.16c6.2151 12.322 9.1482 29.377 7.25 47.781-1.7436 16.906-7.2374 31.84-14.781 42.531l-28.531-16.5 36.062-73.812z" fill="#fff" fill-opacity=".99608" opacity=".99"/>
  <path d="m501.06 838.16c-6.2151 12.322-9.1482 29.377-7.25 47.781 1.7436 16.906 7.2374 31.84 14.781 42.531l28.531-16.5-36.062-73.812z" fill="#fff" fill-opacity=".99608" opacity=".99"/>
  <path transform="matrix(.57079 0 0 .61011 368.77 666.4)" d="m465.71 183.79c0 80.476-64.599 145.71-144.29 145.71s-144.29-65.239-144.29-145.71 64.599-145.71 144.29-145.71 144.29 65.238 144.29 145.71z"/>
  <path transform="matrix(.5944 0 0 .70726 332.73 569.65)" d="m485.71 325.22c0 68.641-55.645 124.29-124.29 124.29s-124.29-55.645-124.29-124.29 55.645-124.29 124.29-124.29 124.29 55.645 124.29 124.29z" fill="#c87137" stroke="#deaa87" stroke-width="2"/>
  <path transform="matrix(.31983 .10834 -.07209 .2128 460 643.72)" d="m554.29 199.51c0 74.953-80.589 135.71-180 135.71s-180-60.761-180-135.71 80.589-135.71 180-135.71 180 60.761 180 135.71z"/>
  <path transform="translate(833.6 236.82)" d="m-277.4 737.88c0 4.77-3.8669 8.6369-8.6369 8.6369s-8.6369-3.8669-8.6369-8.6369 3.8669-8.6369 8.6369-8.6369 8.6369 3.8669 8.6369 8.6369z" fill="#fff" fill-opacity=".99608"/>
  <path transform="translate(833.6 208.82)" d="m-277.4 737.88c0 4.77-3.8669 8.6369-8.6369 8.6369s-8.6369-3.8669-8.6369-8.6369 3.8669-8.6369 8.6369-8.6369 8.6369 3.8669 8.6369 8.6369z" fill="#fff" fill-opacity=".99608"/>
 </g>
</svg>
