<?xml version='1.0' encoding='utf-8'?>
<svg xmlns="http://www.w3.org/2000/svg" width="135.94087mm" height="190.34558mm" viewBox="0 0 135.94087 190.34558" version="1.1" id="svg5"> <defs id="defs2"> <filter style="color-interpolation-filters:sRGB" id="filter45132" x="-0.01509111" y="-0.012768341" width="1.0301822" height="1.0255367"> <feGaussianBlur stdDeviation="0.044472476" id="feGaussianBlur45134"/> </filter> <filter style="color-interpolation-filters:sRGB" id="filter45227" x="-0.0070175953" y="-0.0084338961" width="1.0140352" height="1.0168678"> <feGaussianBlur stdDeviation="0.27879179" id="feGaussianBlur45229"/> </filter> </defs> <g id="layer1" transform="translate(-94.740819,275.27559)"> <path style="fill:#000000;fill-opacity:1;stroke:#6c5044;stroke-width:0.172183;stroke-linecap:round;paint-order:markers stroke fill" d="" id="path32694" transform="scale(0.26458333)"/> <g id="g61595"> <path id="path6240" style="fill:#d38a5f;fill-opacity:1;stroke:none;stroke-width:0.471854;stroke-linecap:round;paint-order:markers stroke fill" d="m 165.6872,-215.73663 c -0.83782,0.50414 -1.67679,1.48602 -1.41256,2.53189 -0.5739,0.25862 -0.5173,0.82082 -0.51116,1.35784 -0.11482,1.40331 0.0926,2.89327 -0.43472,4.22623 -0.42963,0.77912 -1.32839,1.06403 -2.17069,0.94409 -0.81054,0.014 -1.95746,-0.37256 -2.44069,0.52747 -0.25706,0.44773 -0.8948,0.42093 -1.31481,0.69096 -3.02508,1.42538 -5.26284,4.03182 -8.29952,5.42059 -0.52828,0.20145 -1.07469,0.36232 -1.6307,0.4631 -0.90035,-0.89474 -2.27608,-0.30084 -3.15329,0.31211 -1.76563,1.19927 -3.08497,2.93935 -4.81068,4.18483 -0.62389,0.0717 -0.91484,0.68284 -0.80105,1.25879 0.22168,2.39543 0.89424,4.74755 1.80651,6.96864 0.74929,1.78873 2.00574,3.35529 3.65724,4.38746 2.24764,1.46032 4.74433,2.67342 6.44935,4.81483 1.44426,1.67481 2.74471,3.64759 4.86578,4.53118 1.4667,0.71215 3.12428,1.00876 4.74198,0.75225 2.98545,-0.31211 5.43849,-2.44474 7.11541,-4.80874 1.86937,-2.73909 3.2572,-5.76861 4.7111,-8.73934 1.25899,-2.54353 2.11453,-5.29067 2.35473,-8.12553 0.22237,-2.08419 0.33773,-4.19415 0.19834,-6.28746 0.0155,-0.61682 -0.70279,-0.58256 -0.93873,-0.18059 -0.21228,0.36295 -0.544,0.64084 -0.87256,0.89581 -0.69432,-1.40657 -0.57451,-3.24327 -1.856,-4.33065 -1.07474,-1.67908 -1.18242,-3.75763 -1.94083,-5.57543 -0.27369,-0.70367 -0.61931,-1.41581 -1.20077,-1.91829 0.28586,-0.83817 -0.47708,-1.58436 -0.834,-2.28646 -0.26751,-0.47832 -0.71641,-0.94323 -0.55532,-1.52743 0.003,-0.32648 -0.42092,-0.69785 -0.72236,-0.48815 z m -0.39274,29.29581 c -1.40156,2.89147 -1.70637,5.46968 -4.24321,7.64662 -1.44919,1.23776 -3.73838,1.5907 -5.49871,1.04287 -1.91132,-0.75677 -3.03201,-2.58231 -4.35926,-4.04277 -0.49817,-0.5915 -0.31478,-0.82936 -0.85291,-1.38871 1.90758,0.53794 3.50778,0.16623 5.46929,0.33709 1.07726,0.10519 1.94023,-0.43132 2.86661,-0.85816 2.32494,-1.25966 4.2963,-2.13581 6.77196,-3.06594 -0.0513,0.10967 -0.10252,0.21934 -0.15377,0.329 z"/> <path id="path33464" style="fill:#1a1a1a;fill-opacity:1;stroke:none;stroke-width:0.667302;stroke-linecap:round;paint-order:markers stroke fill" d="m 181.74566,-182.35556 c -0.75434,0.091 -2.05899,-0.94385 -2.67708,-0.45513 -0.47757,0.46815 0.65251,1.84415 1.06031,2.02843 1.64289,0.87938 3.45576,1.34927 5.17754,2.03126 0.75303,0.38322 1.74202,0.81038 1.92317,1.72204 -0.75099,2.10482 -1.87145,4.07001 -3.07371,5.91792 -3.13319,4.863 -6.54828,9.54434 -9.5341,14.50006 -1.21815,2.47855 -3.23019,4.43411 -4.85,6.64231 -0.65487,0.89859 -1.41149,1.7585 -1.84595,2.79118 0.0738,0.5698 0.19925,1.02632 0.75276,0.47025 1.38546,-1.01734 2.67691,-2.17613 4.1724,-3.04434 4.29684,-2.70219 9.11993,-4.70519 13.07735,-7.98815 3.3818,-2.67902 6.6191,-5.84753 10.85433,-7.11481 2.56467,-0.79741 5.28251,-0.94811 7.94572,-0.70506 0.5431,0.0695 -0.0287,-0.81314 0.0134,-1.17199 -0.69337,-2.68985 -2.26952,-5.0927 -4.14626,-7.10917 -1.32216,-1.51287 -3.18217,-2.34124 -4.94557,-3.20229 -2.43141,-1.14119 -4.67221,-2.63021 -7.03457,-3.89637 -2.10663,-1.12459 -4.4984,-1.53167 -6.86969,-1.41614 z"/> <path id="path6201" style="fill:#d38a5f;fill-opacity:1;stroke:none;stroke-width:0.471854;stroke-linecap:round;paint-order:markers stroke fill" d="m 172.95561,-189.49881 c -1.2269,3.30575 -2.93473,6.40626 -4.56289,9.52597 -1.44775,2.67892 -3.39371,5.37649 -6.31202,6.55216 -2.33519,0.85637 -5.07353,0.68086 -7.18556,-0.68143 -1.96562,-1.22853 -3.19681,-3.26498 -4.66741,-4.9974 0.15125,0.56324 -0.54773,0.4272 -0.8376,0.73076 -1.57223,0.98827 -3.21688,1.96241 -4.45388,3.37008 -0.95951,1.07087 -0.6808,2.60007 -0.35368,3.86181 0.33197,1.61304 0.13256,3.27676 0.17553,4.9113 -0.72851,0.94988 -1.3032,2.19468 -0.84251,3.39316 0.66703,1.82878 1.84062,3.42109 2.61044,5.20741 1.49044,2.96214 2.44474,6.16543 3.99435,9.09656 1.86685,3.30987 5.09604,5.57679 7.08127,8.80174 1.08906,1.84307 1.71416,4.07374 3.45149,5.44918 0.32806,0.35844 0.79873,0.38066 1.03472,-0.085 2.48574,-4.36926 3.85153,-9.32565 6.7988,-13.4435 1.55005,-2.31258 3.42384,-4.38226 5.08476,-6.60923 0.91106,-1.42331 1.60073,-2.97612 2.58855,-4.35583 2.90443,-4.47302 6.02437,-8.80185 8.85425,-13.32913 0.86335,-1.50745 1.72536,-3.04005 2.3352,-4.66873 0.23912,-0.93599 -0.71956,-1.61311 -1.40099,-2.0582 -1.97328,-1.12389 -4.32471,-1.38232 -6.26029,-2.59502 -1.36366,-0.8391 -2.86036,-1.64708 -4.15834,-2.69061 -1.26652,-1.47119 -1.9861,-3.40685 -2.05208,-5.34431 -0.0976,-0.43679 -0.12707,-1.35906 -0.26584,-1.50306 -0.21876,0.48713 -0.43751,0.97424 -0.65627,1.46136 z"/> <path id="path6800" style="fill:#000000;fill-opacity:1;stroke:none;stroke-width:0.471854;stroke-linecap:round;paint-order:markers stroke fill" d="m 199.47773,-174.30577 c 1.42705,1.51653 2.79909,3.12638 3.71077,5.01783 0.46673,1.00106 0.86421,2.04356 1.11874,3.11959 -2.87032,-0.0996 -5.83779,-0.0562 -8.52335,1.09124 -2.63968,1.01663 -5.00665,2.61111 -7.15271,4.43558 -2.80944,2.33571 -5.65125,4.6934 -8.91049,6.3947 -4.09811,2.27229 -8.44926,4.29442 -11.8038,7.65403 -0.50134,0.43238 -1.08926,0.77325 -1.32951,1.43015 -1.87935,3.57605 -3.24363,7.39567 -5.17184,10.94851 1.42678,5.25847 2.49499,10.58832 2.97409,16.00454 0.56715,5.7521 0.54137,11.54667 0.61811,17.33719 5.7941,-1.52416 11.66703,-2.76807 17.61706,-3.49887 13.80021,-1.75727 27.74574,-1.90361 41.63528,-2.73068 0.60068,0.0692 0.85242,-0.21918 0.71714,-0.80293 -0.77347,-8.24109 -2.8598,-16.27092 -4.85849,-24.28029 -1.07163,-4.2095 -1.7722,-8.43375 -2.31047,-12.7233 -0.73746,-5.46711 -1.35341,-10.99118 -2.98795,-16.28458 -0.68301,-2.37616 -1.62856,-4.76412 -3.41432,-6.53887 -2.51346,-2.53276 -5.6639,-4.30659 -8.76841,-6.00732 -1.33512,-0.7257 -2.69678,-1.40162 -4.13076,-1.91291 0.32363,0.44879 0.64728,0.8976 0.97091,1.34639 z"/> <path id="path6839" style="fill:#000000;fill-opacity:1;stroke:none;stroke-width:0.471854;stroke-linecap:round;paint-order:markers stroke fill" d="m 130.47695,-169.57101 c -1.678,0.23756 -3.31912,0.68285 -4.85379,1.40864 -1.22964,0.49788 -2.83121,-0.20913 -3.84484,0.87443 -1.45191,1.59007 -2.76634,3.34366 -3.72652,5.27858 -1.09456,2.37125 -1.62021,4.95277 -2.24708,7.47458 -0.50553,2.13848 -0.1585,4.34754 -0.23516,6.51902 -0.0138,2.62478 0.18696,5.32849 -0.72373,7.84384 -0.88961,2.81009 -1.97092,5.75842 -1.36798,8.74868 0.0289,0.83692 0.66491,1.45065 0.85993,2.22205 0.20333,0.9143 -0.0499,1.8458 -0.6339,2.56865 -0.83303,1.00908 -0.73608,2.40339 -0.32305,3.5657 0.31696,0.99628 0.38372,2.08848 -0.0334,3.0641 -0.17621,1.18324 0.30662,2.35351 0.57971,3.48991 1.22697,4.04688 5.2949,6.99185 9.5242,6.89115 2.88453,0.008 5.64689,-1.44561 7.51731,-3.5972 0.14818,3.11977 -0.0392,6.29648 -1.08296,9.26513 -0.28654,0.93324 -0.69137,1.84764 -0.5567,2.84567 -0.0567,1.72707 0.11445,3.477907 -0.14727,5.188817 -0.27359,0.892088 -0.84286,1.6462 -1.34752,2.417188 2.25435,0.588821 4.61745,0.413844 6.92098,0.335005 6.18517,-0.29476 12.18285,-1.986774 18.05154,-3.852794 4.2635,-1.323433 8.48989,-2.773747 12.78927,-3.981286 -0.088,-7.06169 -0.009,-14.15948 -1.08057,-21.15978 -0.56574,-3.89949 -1.32213,-7.78076 -2.3915,-11.57461 -0.15455,-0.83938 -1.04172,-1.15034 -1.4994,-1.80155 -1.07076,-1.15772 -1.39319,-2.90712 -2.80499,-3.763 -4.16919,-3.41294 -7.99942,-7.44137 -11.59284,-11.54522 -1.49907,-1.77227 -3.24029,-3.34242 -5.25871,-4.50306 -1.71798,-0.92412 -3.10536,-2.4302 -3.79746,-4.26286 -0.89858,-1.90847 -1.53048,-4.24261 -3.49775,-5.34844 -1.11643,-0.727 -2.53442,-0.85494 -3.80377,-0.52743 -0.28189,0.0116 -1.01826,0.58569 -0.90655,0.25568 0.66234,-1.60796 1.69644,-3.01031 2.53545,-4.52197 -0.34032,0.0608 -0.68064,0.12158 -1.02096,0.18238 z"/> <path id="path6878" style="fill:#000000;fill-opacity:1;stroke:none;stroke-width:0.667302;stroke-linecap:round;paint-order:markers stroke fill" d="m 113.02739,-119.72559 c -0.43677,0.37621 -0.87357,0.75241 -1.31064,1.12827 -0.13928,-0.51311 -0.72721,0.57132 -1.05892,0.74779 -1.44125,1.25805 -2.38126,3.07159 -2.43711,4.99737 0.0531,0.50509 -0.24588,1.14218 0.0379,1.56049 1.31545,1.31866 2.57025,2.75088 4.18229,3.71229 1.00924,1.0162 1.77944,2.26137 2.95206,3.13803 3.0832,2.52759 7.43395,3.68802 11.2951,2.48002 0.46434,-0.1134 0.59956,-0.65386 0.74383,-0.94945 1.1592,-2.62596 2.58909,-5.12327 3.88296,-7.6809 0.48294,-1.22751 0.181,-2.58298 0.2671,-3.86632 -1.51311,1.44794 -3.01505,3.05028 -5.07177,3.7018 -3.70989,1.3828 -8.20795,0.0845 -10.58413,-3.09003 -1.46908,-1.82578 -1.83909,-4.18871 -2.27107,-6.41936 -0.20921,0.18001 -0.41841,0.36001 -0.62761,0.54 z"/> <path id="path11763" style="fill:#d38a5f;fill-opacity:1;stroke:none;stroke-width:0.235926;stroke-linecap:round;paint-order:markers stroke fill" d="m 109.49778,-109.92709 c -1.52202,2.61987 -2.72817,5.42802 -3.45987,8.37164 4.43467,2.656101 9.16242,4.834701 14.09161,6.397642 0.89828,-0.206465 1.26774,-1.211927 1.7427,-1.905852 0.78114,-1.479588 1.44186,-3.11669 2.85135,-4.12822 0.16724,-0.26748 1.3873,-0.92245 0.77438,-0.90328 -1.76597,0.002 -3.69497,0.047 -5.28412,-0.45249 -2.7534,-0.7177 -5.08988,-2.54865 -6.76884,-4.80662 -0.43669,-0.71403 -1.22778,-1.00189 -1.86949,-1.46808 -0.62019,-0.51725 -1.1819,-1.10087 -1.77196,-1.65188 -0.10192,0.18238 -0.20384,0.36476 -0.30576,0.54714 z"/> <path id="path33503" style="fill:#1a1a1a;fill-opacity:1;stroke:none;stroke-width:0.667302;stroke-linecap:round;paint-order:markers stroke fill" d="m 147.69049,-180.51387 c -1.74527,0.36496 -3.27747,1.45348 -4.36284,2.85195 -2.94919,3.67505 -5.0874,7.93131 -8.43291,11.29049 -0.52928,0.4995 -1.09431,0.95887 -1.64274,1.43682 1.01664,1.05737 2.04318,2.15295 2.55003,3.5611 0.87199,1.994 1.65202,4.21031 3.51528,5.51225 1.94434,1.41427 4.10752,2.58826 5.67836,4.45465 3.92272,4.4405 7.90836,8.88875 12.59704,12.54355 0.58163,0.44352 0.79432,0.16812 0.80998,-0.47742 -0.51116,-1.27062 -1.54437,-2.2513 -2.38076,-3.31534 -2.11158,-2.48286 -4.64848,-4.74229 -5.85453,-7.85242 -1.55788,-3.71713 -3.01812,-7.49395 -5.0745,-10.9751 -0.55668,-0.8082 -0.84321,-1.77749 -0.6771,-2.7571 0.1302,-0.94501 0.96868,-1.65842 0.90562,-2.65943 0.0959,-1.87286 -0.015,-3.75991 -0.42586,-5.59093 -0.28078,-1.27155 0.48181,-2.45814 1.48042,-3.17445 1.11472,-0.9656 2.49953,-1.57715 3.59606,-2.55275 0.54065,-0.64158 -0.25874,-1.23715 -0.74741,-1.5717 -0.44644,-0.34654 -0.92389,-0.78485 -1.53414,-0.72417 z"/> <path id="path33542" style="fill:#1a1a1a;fill-opacity:1;stroke:none;stroke-width:0.667302;stroke-linecap:round;paint-order:markers stroke fill" d="m 142.35316,-177.25246 c -1.41835,0.54022 -2.85081,1.09613 -4.18045,1.82917 -1.23999,0.84489 -1.73593,2.49373 -3.19524,3.04682 -1.21464,0.4781 -2.41837,1.05554 -3.31003,2.03949 -1.52129,1.52805 -2.63498,3.41897 -3.4488,5.40596 0.33752,0.52103 0.93096,0.36722 1.40363,0.13589 1.20261,-0.30664 2.47614,-0.16818 3.678,0.0626 1.17071,-0.33292 1.96024,-1.37599 2.79112,-2.20303 2.27159,-2.50333 4.02091,-5.41794 5.93452,-8.19158 0.52586,-0.75268 1.02146,-1.52852 1.28029,-2.41854 -0.31768,0.0977 -0.63536,0.19549 -0.95304,0.29323 z"/> <path id="path33898" style="opacity:0.347066;mix-blend-mode:normal;fill:#cb7645;fill-opacity:1;stroke:none;stroke-width:0.182227;stroke-linecap:round;paint-order:markers stroke fill;filter:url(#filter45132)" d="m 148.93555,-177.4375 c -0.089,2.1895 -0.36117,4.42769 -1.33798,6.41742 -0.13442,1.03533 1.11403,0.69486 1.71172,0.53991 1.93919,-0.42267 3.71052,-1.38308 5.35087,-2.47295 -2.22411,-1.38606 -3.80146,-3.52446 -5.39981,-5.54804 -0.44476,-0.6461 -0.2095,0.87828 -0.3248,1.06366 z" transform="matrix(0.91548068,0,0,0.91548068,13.828263,-15.328609)"/> <path style="opacity:0.581773;mix-blend-mode:normal;fill:#ce7e50;fill-opacity:1;stroke:none;stroke-width:0.944882;stroke-linecap:round;paint-order:markers stroke fill;filter:url(#filter45227)" d="m 613,-639.27072 c -6.96373,-1.10035 -13.49743,-3.64666 -19.31968,-7.52925 -2.21758,-1.47881 -7.04244,-5.32912 -6.85565,-5.47092 0.0277,-0.021 1.32402,0.221 2.88075,0.53779 4.31805,0.87872 8.17587,1.19663 12.54458,1.03375 6.24509,-0.23283 10.88137,-1.26196 15.43569,-3.42631 7.36235,-3.4988 12.8563,-9.28466 21.95768,-23.12434 8.20272,-12.47316 13.724,-24.04647 17.91762,-37.55765 l 1.07615,-3.46718 0.41279,2.88742 c 0.97667,6.83158 3.65122,12.69542 8.14389,17.85516 3.53445,4.05924 8.45767,7.50529 13.45142,9.41543 l 1.52025,0.58151 -3.02099,2.01765 c -4.1647,2.78152 -7.72991,5.7129 -11.2695,9.26597 -3.61246,3.62622 -5.8118,6.33583 -9.84299,12.12669 -6.00943,8.63262 -8.09677,11.33324 -11.02276,14.26132 -5.44551,5.4494 -11.5403,8.66898 -19.41679,10.25693 -3.57926,0.7216 -11.06185,0.89391 -14.59246,0.33603 z" id="path44477" transform="matrix(0.24222092,0,0,0.24222092,13.828263,-15.328609)"/> <path style="fill:none;stroke:#945800;stroke-width:1.2261;stroke-linecap:butt;stroke-linejoin:miter;stroke-miterlimit:4;stroke-dasharray:none;stroke-opacity:1" d="m 173.56272,-202.01302 c -0.86903,0.52007 -1.5678,1.31968 -1.96673,2.25057 -0.41946,0.97879 -0.50267,2.1069 -0.18286,3.12263 0.31981,1.01573 1.05057,1.90516 2.00766,2.37203 0.77297,0.37706 1.68145,0.47273 2.51335,0.25456 0.83191,-0.21816 1.5793,-0.75041 2.04862,-1.4711 0.60495,-0.92895 0.72378,-2.13752 0.39123,-3.19503 -0.33256,-1.0575 -1.09143,-1.95866 -2.03353,-2.54291 -0.63327,-0.39272 -1.34997,-0.65018 -2.08838,-0.75019" id="path51947"/> <path id="path2094" style="fill:#000000;stroke:none;stroke-width:0.242221" d="m 159.9565,-267.04109 c -0.21056,0.42488 -0.18202,0.93259 -0.63571,0.34636 -0.52365,-0.47243 -0.92325,-0.73758 -0.61986,0.17174 -0.1058,0.27562 0.33232,0.68417 0.0898,0.87478 -1.23327,0.43137 -2.57101,0.12435 -3.84609,0.27358 -0.1565,-0.35209 -0.78593,-0.72178 -0.97092,-0.23603 -0.80705,-0.7858 -2.11247,-1.19526 -3.1208,-0.539 -1.13903,0.6496 -2.17072,1.92286 -3.62907,1.59217 -0.57275,0.0789 -1.08008,0.5651 -1.69167,0.6487 -1.03985,0.1675 -2.0158,0.67667 -2.66403,1.51483 -0.56188,-0.7212 -1.67813,-0.65435 -2.23471,0.0351 -0.27518,0.13441 -0.71349,1.13606 -0.75077,0.5534 0.18418,-0.63782 0.31672,-1.74802 -0.5906,-1.84363 -0.7576,0.0272 -1.30031,0.66194 -1.9311,1.00309 0.0966,-0.91343 -0.32255,-0.53723 -0.77244,-0.0841 -1.14814,0.95096 -2.75736,0.54659 -4.12016,0.54545 -1.32802,-0.0927 -2.72375,-0.0562 -3.93692,0.53189 -0.56392,0.076 -1.51513,-0.0735 -1.69203,0.62448 -0.22415,0.31068 -0.63549,0.63555 -0.78357,1.06052 -0.45421,0.95006 -0.66303,2.00181 -1.16651,2.93081 -0.57783,-0.36142 -1.42119,-0.1641 -1.88819,-0.68303 -0.12713,-0.49034 -0.16767,-1.00327 -0.26284,-1.50197 -0.40899,0.66436 -0.86305,1.29693 -1.5709,1.66495 -0.94294,0.67605 -2.24422,1.52153 -2.09817,2.85167 0.1253,0.76722 -0.45627,1.47496 -0.82986,2.10419 -1.4908,2.05358 -3.56034,3.60464 -5.67507,4.96754 -1.67962,0.41702 -2.70227,1.96 -3.32934,3.46345 -0.60731,1.39333 -1.40642,2.8952 -2.92703,3.44378 -1.67808,2.63848 -1.54602,5.99266 -3.53134,8.44446 -0.52493,0.36548 -0.29887,0.85925 -0.2409,1.38312 -0.0404,2.2784 -2.03208,4.0418 -1.97276,6.33459 0.0505,1.20791 1.27871,1.78101 1.79176,2.76375 0.8925,1.25769 1.32749,3.13726 0.21924,4.4076 -0.41432,0.54096 -0.33348,1.32988 -0.35348,1.98881 0.0172,1.22337 1.13123,1.98071 2.16421,2.36991 1.00126,0.49369 2.20759,0.8386 2.7318,1.92815 1.17971,1.85846 1.14414,4.12289 1.53202,6.20137 0.39978,0.72833 -0.67775,1.0465 -0.87988,1.64356 -0.39434,0.79148 0.40901,1.60885 1.07121,1.88783 0.38978,0.0566 -0.20385,0.57766 -0.24836,0.81498 -0.18078,0.32395 0.0769,1.02916 0.5255,0.74063 0.42738,-0.19132 0.71621,-0.45363 1.15356,-0.10482 0.29365,0.0926 0.61116,0.0912 0.91343,0.0422 -0.2596,0.84893 -0.30499,1.8581 0.30396,2.57835 0.66374,0.84209 1.84559,0.48078 2.70711,0.8529 0.32274,0.517 0.14529,1.20385 0.33615,1.78091 0.19083,0.81114 0.0682,1.80986 0.6741,2.45141 0.69735,0.45255 1.20774,-0.45882 1.45368,-0.99415 0.37513,-0.54343 0.27925,-1.44585 0.92621,-1.76124 0.94749,0.31053 1.41536,1.35247 1.87481,2.16884 0.58698,1.39106 1.90862,2.20811 3.18715,2.87883 0.66668,0.39053 1.17173,0.98417 1.72547,1.5109 0.094,-0.48662 -0.0278,-1.05307 0.60217,-0.96909 0.40102,-0.12677 0.41547,-0.79868 0.8731,-0.62479 0.71966,0.12048 1.43741,-0.34468 1.956,-0.66264 0.0882,0.85398 1.06298,0.99621 1.7058,1.22661 -0.1995,0.42448 -0.55232,0.74939 -0.82787,1.12289 0.98783,0.46762 2.08611,0.70079 3.172,0.48813 0.77729,-0.22132 1.56167,0.49877 2.27797,0.0232 0.36196,-0.24003 0.32055,-0.77711 0.60078,-1.03885 0.35663,-0.0641 1.35868,0.46837 1.26988,0.10355 -0.32845,-0.59659 -0.72559,-1.25599 -0.49208,-1.96134 0.22386,0.43985 0.44648,0.87124 1.01414,0.74108 1.0831,0.01 1.47231,-1.18377 1.59493,-2.06461 0.15301,-0.8938 0.47138,-2.06675 1.54993,-2.16674 0.72661,-0.0136 1.10212,-0.79282 1.63588,-1.20108 1.42497,-1.32903 2.7409,-2.90236 4.56073,-3.69672 0.50249,-0.25843 1.0376,0.0153 1.26849,0.49563 2.8518,-0.29335 5.11897,-2.20673 7.28393,-3.9079 1.5092,-1.20048 3.17111,-2.29316 5.02321,-2.70967 0.0385,-0.26649 -0.0306,-0.78488 0.4205,-0.64088 1.23065,0.14714 2.70907,0.40155 3.68168,-0.58063 1.36296,-1.29134 1.11734,-3.33631 1.10824,-5.03765 0.0295,-0.4277 -0.10959,-1.26031 0.56919,-1.17404 0.93335,0.0397 0.43982,-0.3741 -0.01,-0.77394 -0.29031,-0.30411 0.0994,-0.75988 0.27178,-1.03349 0.42424,0.89349 1.14013,1.62539 1.45368,2.50326 -0.31433,0.14504 -1.74185,0.0693 -1.02164,0.41951 0.68008,0.48992 1.60218,0.70935 1.95322,1.5545 1.04024,2.00586 1.46322,5.39083 2.64619,7.33075 0.41484,0.42755 0.91691,0.81911 1.05192,1.44984 0.43463,1.04502 0.34601,2.31134 1.05441,3.22948 0.66886,0.6687 1.5581,-0.0654 1.99366,-0.64369 0.30562,-0.33136 0.33589,-0.79177 0.83823,-0.4731 0.47193,0.25699 1.01545,0.11148 1.45764,0.34794 0.68084,0.18125 1.1324,-0.71967 0.63653,-1.19263 -0.33595,-0.37352 -0.41715,-0.57823 -0.50958,-1.13363 -0.0262,-0.27951 0.69991,-0.0372 0.97805,-0.1788 0.66172,-0.0829 1.12555,-0.72775 1.06747,-1.37858 1.05292,-0.22183 2.44545,-0.0494 2.85038,1.11767 0.2379,0.55656 0.47544,1.11327 0.7132,1.66989 0.20464,-0.78332 0.16803,-1.72659 0.54715,-2.41029 0.79188,0.41297 1.1372,1.63018 2.14028,1.586 0.75239,-0.35437 0.40768,-1.31916 0.58342,-1.97013 0.0988,-0.96629 -0.63271,-3.08124 0.17841,-3.81039 0.81996,-0.6913 1.62849,-1.51596 2.17248,-2.39419 0.88323,-0.0882 2.05214,-0.70014 1.84169,-1.74871 -0.0378,-0.33791 -0.39831,-0.6186 -0.57039,-0.77959 0.48775,-0.21955 0.34201,-0.8516 0.0501,-1.18191 0.75802,-1.22845 1.40215,-2.61291 2.63558,-3.45272 -0.24975,-0.33317 -0.6597,-0.60891 -0.76171,-1.01918 0.8672,-0.55917 2.27203,-0.22885 2.85372,-1.22303 0.22167,-0.52978 -0.17323,-1.05318 -0.54536,-1.40004 0.85418,-0.58084 0.33406,-1.73225 0.21451,-2.54152 -0.15632,-0.59798 -0.21814,-1.57249 0.60925,-1.66988 0.52343,0.0367 0.80831,-0.29311 1.04296,-0.72361 0.97203,-1.51371 1.70438,-3.52269 0.93158,-5.26938 -0.2615,-0.53404 -0.72977,-0.96502 -1.29098,-1.16581 0.0693,-2.2494 0.79694,-4.65613 -0.21455,-6.80173 -0.41507,-0.85757 -1.22772,-1.49251 -2.15102,-1.71652 -1.06889,-1.35887 -1.26155,-3.47073 -2.96337,-4.28385 -0.41684,-0.20411 -0.88193,-0.29678 -1.34405,-0.31324 -0.43935,-2.32032 -2.16464,-4.23064 -4.29846,-5.16374 -0.38877,-0.24911 -1.03956,-0.23545 -1.00208,-0.80678 -0.29045,-1.799 -1.84448,-3.03096 -3.4557,-3.65467 -1.62549,-0.71695 -3.66334,-1.28998 -4.34836,-3.13073 -0.21657,-0.46945 -0.0876,-1.17428 -0.76352,-1.21772 -2.35603,-0.93161 -3.81706,-3.24553 -6.03463,-4.35921 -0.18081,-1.17294 -1.61477,-1.41273 -2.58338,-1.18719 -0.64891,0.11698 -1.28532,0.36987 -1.80449,0.7813 -0.19775,-0.39616 -0.7037,-0.51232 -1.02455,-0.57574 0.14977,-1.81933 -1.19607,-4.00309 -3.19704,-3.89616 -0.0459,0.0978 -0.0918,0.19549 -0.13768,0.29324 z m -7.62066,2.04731 c -0.87223,0.28447 -0.58765,-0.91307 -0.13799,-0.16061 0.0459,0.0536 0.092,0.10708 0.13799,0.16061 z m 1.44116,0.21278 c -0.0913,0.008 0.0474,-0.0645 0,0 z m 38.48595,44.64578 c 0.53291,0.60864 -0.18398,0.0691 -0.057,-0.064 z"/> <path id="path41223" style="color:#000000;opacity:1;fill:#d40000;fill-opacity:0.997319;stroke:none;stroke-width:0.235926;stroke-linecap:round;-inkscape-stroke:none;paint-order:markers stroke fill" d="m 165.15794,-186.65938 c -1.80119,1.74021 -3.06384,3.96807 -4.9386,5.63235 -1.90068,1.67457 -4.96241,1.83157 -6.96293,0.24895 -1.13715,-0.82333 -1.99355,-2.04579 -3.31477,-2.59845 0.94556,1.65457 2.28556,3.03779 3.57252,4.42541 1.34611,1.36642 3.37094,2.04529 5.25151,1.54846 1.70312,-0.36878 3.08801,-1.5865 3.94377,-3.06799 1.33124,-2.08781 2.02807,-4.48777 3.0314,-6.73409 -0.1943,0.18179 -0.3886,0.36357 -0.5829,0.54536 z"/> <path id="path41229" style="color:#000000;opacity:1;fill:#d40000;fill-opacity:0.997319;stroke:none;stroke-width:0.126963;stroke-linecap:round;-inkscape-stroke:none;paint-order:markers stroke fill" d="m 164.46007,-186.46973 c -2.59413,1.10013 -5.0606,2.11661 -7.51273,3.49994 -1.22698,0.061 -2.44563,3.8e-4 -3.67665,0.0933 -0.98233,-0.0372 -1.95842,-0.16587 -2.93032,-0.30624 2.04155,1.10589 4.49269,1.33275 6.76542,1.02269 1.13852,-0.28828 2.10958,-1.01114 3.17827,-1.48705 1.82731,-0.8923 3.52569,-2.02463 5.15939,-3.2248 -0.32779,0.13407 -0.65559,0.26814 -0.98338,0.40222 z"/> <path style="opacity:1;fill:#ffffff;fill-opacity:0.997319;stroke:none;stroke-width:0.161835;stroke-linecap:round;paint-order:markers stroke fill" d="m 155.86766,-179.73663 c -0.71896,-0.0971 -1.51288,-0.36371 -2.04864,-0.68794 -0.40087,-0.24261 -0.8578,-0.60415 -1.4598,-1.15509 -0.66056,-0.60452 -1.03294,-0.93792 -1.2763,-1.14274 -0.0933,-0.0785 -0.13104,-0.12861 -0.084,-0.11137 0.0472,0.0172 0.25742,0.0975 0.46737,0.17832 0.48107,0.18524 1.1863,0.37026 1.83026,0.48018 1.44733,0.24707 3.42744,0.19778 4.27509,-0.10639 0.2843,-0.10201 1.45089,-0.65993 1.5629,-0.74744 0.0235,-0.0184 0.5149,-0.2723 1.09189,-0.56421 1.35775,-0.68692 2.13366,-1.13941 3.42012,-1.99457 0.57584,-0.3828 1.05185,-0.69108 1.05779,-0.68511 0.006,0.006 -0.14378,0.18429 -0.33274,0.39625 -0.18894,0.21195 -0.79879,0.95379 -1.35523,1.64852 -1.52022,1.89809 -2.00877,2.45404 -2.69257,3.06403 -0.82486,0.73582 -1.60947,1.13082 -2.67986,1.34912 -0.50606,0.10322 -1.32513,0.13939 -1.77633,0.0784 z" id="path46317"/> </g> </g> </svg>