<svg width="219" height="36" viewBox="0 0 219 36" fill="none" xmlns="http://www.w3.org/2000/svg">
<path d="M11.3865 26.5C11.079 26.5 10.8281 26.3672 10.6338 26.1016C10.4396 25.8359 10.3829 25.5437 10.4638 25.225L11.1437 22.25H8.98268C8.65893 22.25 8.39993 22.1129 8.20568 21.8388C8.01143 21.564 7.95477 21.2583 8.03571 20.9219C8.08427 20.674 8.19758 20.4792 8.37565 20.3375C8.55371 20.1958 8.75606 20.125 8.98268 20.125H11.6294L12.6006 15.875H9.95394C9.63019 15.875 9.37118 15.7379 9.17693 15.4638C8.98268 15.189 8.92603 14.8833 9.00696 14.5469C9.05553 14.299 9.16884 14.1042 9.3469 13.9625C9.52497 13.8208 9.72731 13.75 9.95394 13.75H13.0862L13.8875 10.2703C13.9361 10.0401 14.0413 9.85417 14.2032 9.7125C14.3651 9.57083 14.5593 9.5 14.7859 9.5C15.0935 9.5 15.3444 9.63281 15.5387 9.89844C15.7329 10.1641 15.7896 10.4562 15.7086 10.775L15.0287 13.75H18.9138L19.7151 10.2703C19.7636 10.0401 19.8688 9.85417 20.0307 9.7125C20.1926 9.57083 20.3868 9.5 20.6135 9.5C20.921 9.5 21.1719 9.63281 21.3662 9.89844C21.5604 10.1641 21.6171 10.4562 21.5362 10.775L20.8563 13.75H23.0173C23.3411 13.75 23.6001 13.8871 23.7943 14.1612C23.9886 14.436 24.0452 14.7417 23.9643 15.0781C23.9157 15.326 23.8024 15.5208 23.6244 15.6625C23.4463 15.8042 23.2439 15.875 23.0173 15.875H20.3706L19.3994 20.125H22.0461C22.3698 20.125 22.6288 20.2621 22.8231 20.5362C23.0173 20.811 23.074 21.1167 22.993 21.4531C22.9445 21.701 22.8312 21.8958 22.6531 22.0375C22.475 22.1792 22.2727 22.25 22.0461 22.25H18.9138L18.1125 25.7297C18.0639 25.9599 17.9587 26.1458 17.7968 26.2875C17.6349 26.4292 17.4407 26.5 17.2141 26.5C16.9065 26.5 16.6556 26.3672 16.4613 26.1016C16.2671 25.8359 16.2104 25.5437 16.2914 25.225L16.9713 22.25H13.0862L12.2849 25.7297C12.2364 25.9599 12.1312 26.1458 11.9693 26.2875C11.8074 26.4292 11.6132 26.5 11.3865 26.5ZM13.5719 20.125H17.4569L18.4281 15.875H14.5431L13.5719 20.125Z" fill="black"/>
<path d="M39.9 24.5C39.46 24.5 39.12 24.3867 38.88 24.16C38.6533 23.92 38.54 23.58 38.54 23.14V11.76C38.54 11.32 38.6533 10.9867 38.88 10.76C39.12 10.52 39.46 10.4 39.9 10.4H47.04C47.3733 10.4 47.6267 10.4867 47.8 10.66C47.9867 10.8333 48.08 11.08 48.08 11.4C48.08 11.7333 47.9867 11.9933 47.8 12.18C47.6267 12.3533 47.3733 12.44 47.04 12.44H41V16.32H46.6C46.9467 16.32 47.2067 16.4067 47.38 16.58C47.5533 16.7533 47.64 17.0067 47.64 17.34C47.64 17.6733 47.5533 17.9267 47.38 18.1C47.2067 18.2733 46.9467 18.36 46.6 18.36H41V22.46H47.04C47.3733 22.46 47.6267 22.5467 47.8 22.72C47.9867 22.8933 48.08 23.1467 48.08 23.48C48.08 23.8133 47.9867 24.0667 47.8 24.24C47.6267 24.4133 47.3733 24.5 47.04 24.5H39.9ZM51.4736 24.66C51.0736 24.66 50.7669 24.5533 50.5536 24.34C50.3403 24.1133 50.2336 23.7933 50.2336 23.38V15.82C50.2336 15.4067 50.3403 15.0933 50.5536 14.88C50.7669 14.6667 51.0669 14.56 51.4536 14.56C51.8403 14.56 52.1403 14.6667 52.3536 14.88C52.5669 15.0933 52.6736 15.4067 52.6736 15.82V17.18L52.4536 16.68C52.7469 15.9733 53.2003 15.44 53.8136 15.08C54.4403 14.7067 55.1469 14.52 55.9336 14.52C56.7203 14.52 57.3669 14.6667 57.8736 14.96C58.3803 15.2533 58.7603 15.7 59.0136 16.3C59.2669 16.8867 59.3936 17.6333 59.3936 18.54V23.38C59.3936 23.7933 59.2869 24.1133 59.0736 24.34C58.8603 24.5533 58.5536 24.66 58.1536 24.66C57.7536 24.66 57.4403 24.5533 57.2136 24.34C57.0003 24.1133 56.8936 23.7933 56.8936 23.38V18.66C56.8936 17.9 56.7469 17.3467 56.4536 17C56.1736 16.6533 55.7336 16.48 55.1336 16.48C54.4003 16.48 53.8136 16.7133 53.3736 17.18C52.9469 17.6333 52.7336 18.24 52.7336 19V23.38C52.7336 24.2333 52.3136 24.66 51.4736 24.66ZM66.4128 24.7C65.5461 24.7 64.8195 24.5533 64.2328 24.26C63.6595 23.9667 63.2328 23.54 62.9528 22.98C62.6728 22.4067 62.5328 21.7 62.5328 20.86V16.6H61.4928C61.1728 16.6 60.9261 16.52 60.7528 16.36C60.5795 16.1867 60.4928 15.9533 60.4928 15.66C60.4928 15.3533 60.5795 15.12 60.7528 14.96C60.9261 14.8 61.1728 14.72 61.4928 14.72H62.5328V12.9C62.5328 12.4867 62.6395 12.1733 62.8528 11.96C63.0795 11.7467 63.3928 11.64 63.7928 11.64C64.1928 11.64 64.4995 11.7467 64.7128 11.96C64.9261 12.1733 65.0328 12.4867 65.0328 12.9V14.72H67.1528C67.4728 14.72 67.7195 14.8 67.8928 14.96C68.0661 15.12 68.1528 15.3533 68.1528 15.66C68.1528 15.9533 68.0661 16.1867 67.8928 16.36C67.7195 16.52 67.4728 16.6 67.1528 16.6H65.0328V20.72C65.0328 21.36 65.1728 21.84 65.4528 22.16C65.7328 22.48 66.1861 22.64 66.8128 22.64C67.0395 22.64 67.2395 22.62 67.4128 22.58C67.5861 22.54 67.7395 22.5133 67.8728 22.5C68.0328 22.4867 68.1661 22.54 68.2728 22.66C68.3795 22.7667 68.4328 22.9933 68.4328 23.34C68.4328 23.6067 68.3861 23.8467 68.2928 24.06C68.2128 24.26 68.0595 24.4 67.8328 24.48C67.6595 24.5333 67.4328 24.58 67.1528 24.62C66.8728 24.6733 66.6261 24.7 66.4128 24.7ZM73.5448 24.66C73.2115 24.66 72.9248 24.58 72.6848 24.42C72.4448 24.2467 72.2515 23.98 72.1048 23.62L69.2048 16.22C69.0848 15.9 69.0448 15.62 69.0848 15.38C69.1382 15.1267 69.2648 14.9267 69.4648 14.78C69.6648 14.6333 69.9315 14.56 70.2648 14.56C70.5582 14.56 70.7982 14.6333 70.9848 14.78C71.1715 14.9133 71.3315 15.1733 71.4648 15.56L73.8848 22.22H73.4248L75.9248 15.4C76.0315 15.1067 76.1715 14.8933 76.3448 14.76C76.5315 14.6267 76.7715 14.56 77.0648 14.56C77.3582 14.56 77.5982 14.6333 77.7848 14.78C77.9715 14.9133 78.1115 15.12 78.2048 15.4L80.6648 22.22H80.2448L82.6848 15.5C82.8182 15.14 82.9848 14.8933 83.1848 14.76C83.3982 14.6267 83.6315 14.56 83.8848 14.56C84.2048 14.56 84.4515 14.64 84.6248 14.8C84.7982 14.96 84.8982 15.1667 84.9248 15.42C84.9515 15.66 84.9048 15.9267 84.7848 16.22L81.9048 23.62C81.7715 23.9667 81.5782 24.2267 81.3248 24.4C81.0848 24.5733 80.7982 24.66 80.4648 24.66C80.1315 24.66 79.8382 24.5733 79.5848 24.4C79.3448 24.2267 79.1582 23.9667 79.0248 23.62L76.4048 16.68H77.5448L74.9848 23.6C74.8515 23.96 74.6648 24.2267 74.4248 24.4C74.1848 24.5733 73.8915 24.66 73.5448 24.66ZM88.0556 24.64C87.6556 24.64 87.349 24.52 87.1356 24.28C86.9223 24.04 86.8156 23.7067 86.8156 23.28V15.94C86.8156 15.5 86.9223 15.1667 87.1356 14.94C87.349 14.7 87.6556 14.58 88.0556 14.58C88.4556 14.58 88.7623 14.7 88.9756 14.94C89.2023 15.1667 89.3156 15.5 89.3156 15.94V23.28C89.3156 23.7067 89.209 24.04 88.9956 24.28C88.7823 24.52 88.469 24.64 88.0556 24.64ZM88.0556 12.72C87.589 12.72 87.2223 12.6067 86.9556 12.38C86.7023 12.14 86.5756 11.8133 86.5756 11.4C86.5756 10.9733 86.7023 10.6467 86.9556 10.42C87.2223 10.1933 87.589 10.08 88.0556 10.08C88.5356 10.08 88.9023 10.1933 89.1556 10.42C89.409 10.6467 89.5356 10.9733 89.5356 11.4C89.5356 11.8133 89.409 12.14 89.1556 12.38C88.9023 12.6067 88.5356 12.72 88.0556 12.72ZM96.4333 24.7C95.4066 24.7 94.5133 24.4933 93.7533 24.08C92.9933 23.6533 92.4066 23.0533 91.9933 22.28C91.5799 21.5067 91.3733 20.6 91.3733 19.56C91.3733 18.7733 91.4866 18.0733 91.7133 17.46C91.9533 16.8333 92.2933 16.3067 92.7333 15.88C93.1733 15.44 93.7066 15.1067 94.3333 14.88C94.9599 14.64 95.6599 14.52 96.4333 14.52C96.8733 14.52 97.3466 14.58 97.8533 14.7C98.3733 14.82 98.8599 15.02 99.3133 15.3C99.5266 15.4333 99.6666 15.5933 99.7333 15.78C99.7999 15.9667 99.8133 16.16 99.7733 16.36C99.7333 16.5467 99.6466 16.7133 99.5133 16.86C99.3933 16.9933 99.2399 17.08 99.0533 17.12C98.8666 17.1467 98.6599 17.1 98.4333 16.98C98.1399 16.8067 97.8399 16.68 97.5333 16.6C97.2266 16.5067 96.9333 16.46 96.6533 16.46C96.2133 16.46 95.8266 16.5333 95.4933 16.68C95.1599 16.8133 94.8733 17.0133 94.6333 17.28C94.4066 17.5333 94.2333 17.8533 94.1133 18.24C93.9933 18.6267 93.9333 19.0733 93.9333 19.58C93.9333 20.5667 94.1666 21.3467 94.6333 21.92C95.1133 22.48 95.7866 22.76 96.6533 22.76C96.9333 22.76 97.2199 22.72 97.5133 22.64C97.8199 22.56 98.1266 22.4333 98.4333 22.26C98.6599 22.14 98.8599 22.1 99.0333 22.14C99.2199 22.18 99.3733 22.2733 99.4933 22.42C99.6133 22.5533 99.6866 22.72 99.7133 22.92C99.7399 23.1067 99.7133 23.2933 99.6333 23.48C99.5666 23.6667 99.4333 23.82 99.2333 23.94C98.7933 24.2067 98.3266 24.4 97.8333 24.52C97.3399 24.64 96.8733 24.7 96.4333 24.7ZM102.587 24.66C102.187 24.66 101.88 24.5533 101.667 24.34C101.454 24.1133 101.347 23.7933 101.347 23.38V11.5C101.347 11.0867 101.454 10.7733 101.667 10.56C101.88 10.3467 102.187 10.24 102.587 10.24C102.987 10.24 103.294 10.3467 103.507 10.56C103.734 10.7733 103.847 11.0867 103.847 11.5V18.88H103.887L107.187 15.4C107.454 15.1333 107.687 14.9267 107.887 14.78C108.087 14.6333 108.36 14.56 108.707 14.56C109.054 14.56 109.314 14.6533 109.487 14.84C109.674 15.0133 109.767 15.2267 109.767 15.48C109.767 15.7333 109.647 15.9867 109.407 16.24L105.927 19.92V18.88L109.747 23C109.987 23.2533 110.094 23.5133 110.067 23.78C110.054 24.0333 109.947 24.2467 109.747 24.42C109.547 24.58 109.294 24.66 108.987 24.66C108.614 24.66 108.314 24.5867 108.087 24.44C107.874 24.2933 107.634 24.0733 107.367 23.78L103.887 20.14H103.847V23.38C103.847 24.2333 103.427 24.66 102.587 24.66ZM115.41 24.7C114.303 24.7 113.47 24.3867 112.91 23.76C112.35 23.12 112.07 22.1867 112.07 20.96V11.5C112.07 11.0867 112.176 10.7733 112.39 10.56C112.603 10.3467 112.91 10.24 113.31 10.24C113.71 10.24 114.016 10.3467 114.23 10.56C114.456 10.7733 114.57 11.0867 114.57 11.5V20.84C114.57 21.4533 114.696 21.9067 114.95 22.2C115.216 22.4933 115.59 22.64 116.07 22.64C116.176 22.64 116.276 22.64 116.37 22.64C116.463 22.6267 116.556 22.6133 116.65 22.6C116.836 22.5733 116.963 22.6267 117.03 22.76C117.096 22.88 117.13 23.1333 117.13 23.52C117.13 23.8533 117.063 24.1133 116.93 24.3C116.796 24.4867 116.576 24.6 116.27 24.64C116.136 24.6533 115.996 24.6667 115.85 24.68C115.703 24.6933 115.556 24.7 115.41 24.7ZM123.179 24.7C122.072 24.7 121.119 24.4933 120.319 24.08C119.519 23.6667 118.899 23.08 118.459 22.32C118.032 21.56 117.819 20.66 117.819 19.62C117.819 18.6067 118.025 17.72 118.439 16.96C118.865 16.2 119.445 15.6067 120.179 15.18C120.925 14.74 121.772 14.52 122.719 14.52C123.412 14.52 124.032 14.6333 124.579 14.86C125.139 15.0867 125.612 15.4133 125.999 15.84C126.399 16.2667 126.699 16.7867 126.899 17.4C127.112 18 127.219 18.68 127.219 19.44C127.219 19.68 127.132 19.8667 126.959 20C126.799 20.12 126.565 20.18 126.259 20.18H119.839V18.74H125.459L125.139 19.04C125.139 18.4267 125.045 17.9133 124.859 17.5C124.685 17.0867 124.425 16.7733 124.079 16.56C123.745 16.3333 123.325 16.22 122.819 16.22C122.259 16.22 121.779 16.3533 121.379 16.62C120.992 16.8733 120.692 17.24 120.479 17.72C120.279 18.1867 120.179 18.7467 120.179 19.4V19.54C120.179 20.6333 120.432 21.4533 120.939 22C121.459 22.5333 122.219 22.8 123.219 22.8C123.565 22.8 123.952 22.76 124.379 22.68C124.819 22.5867 125.232 22.4333 125.619 22.22C125.899 22.06 126.145 21.9933 126.359 22.02C126.572 22.0333 126.739 22.1067 126.859 22.24C126.992 22.3733 127.072 22.54 127.099 22.74C127.125 22.9267 127.085 23.12 126.979 23.32C126.885 23.52 126.719 23.6933 126.479 23.84C126.012 24.1333 125.472 24.3533 124.859 24.5C124.259 24.6333 123.699 24.7 123.179 24.7ZM130.478 24.66C130.065 24.66 129.745 24.5533 129.518 24.34C129.305 24.1133 129.198 23.7933 129.198 23.38V15.82C129.198 15.4067 129.305 15.0933 129.518 14.88C129.732 14.6667 130.032 14.56 130.418 14.56C130.805 14.56 131.105 14.6667 131.318 14.88C131.532 15.0933 131.638 15.4067 131.638 15.82V17.08H131.438C131.625 16.28 131.992 15.6733 132.538 15.26C133.085 14.8467 133.812 14.6 134.718 14.52C134.998 14.4933 135.218 14.5667 135.378 14.74C135.552 14.9 135.652 15.1533 135.678 15.5C135.705 15.8333 135.625 16.1067 135.438 16.32C135.265 16.52 134.998 16.64 134.638 16.68L134.198 16.72C133.385 16.8 132.772 17.0533 132.358 17.48C131.945 17.8933 131.738 18.48 131.738 19.24V23.38C131.738 23.7933 131.632 24.1133 131.418 24.34C131.205 24.5533 130.892 24.66 130.478 24.66ZM142.077 24.7C141.21 24.7 140.484 24.5533 139.897 24.26C139.324 23.9667 138.897 23.54 138.617 22.98C138.337 22.4067 138.197 21.7 138.197 20.86V16.6H137.157C136.837 16.6 136.59 16.52 136.417 16.36C136.244 16.1867 136.157 15.9533 136.157 15.66C136.157 15.3533 136.244 15.12 136.417 14.96C136.59 14.8 136.837 14.72 137.157 14.72H138.197V12.9C138.197 12.4867 138.304 12.1733 138.517 11.96C138.744 11.7467 139.057 11.64 139.457 11.64C139.857 11.64 140.164 11.7467 140.377 11.96C140.59 12.1733 140.697 12.4867 140.697 12.9V14.72H142.817C143.137 14.72 143.384 14.8 143.557 14.96C143.73 15.12 143.817 15.3533 143.817 15.66C143.817 15.9533 143.73 16.1867 143.557 16.36C143.384 16.52 143.137 16.6 142.817 16.6H140.697V20.72C140.697 21.36 140.837 21.84 141.117 22.16C141.397 22.48 141.85 22.64 142.477 22.64C142.704 22.64 142.904 22.62 143.077 22.58C143.25 22.54 143.404 22.5133 143.537 22.5C143.697 22.4867 143.83 22.54 143.937 22.66C144.044 22.7667 144.097 22.9933 144.097 23.34C144.097 23.6067 144.05 23.8467 143.957 24.06C143.877 24.26 143.724 24.4 143.497 24.48C143.324 24.5333 143.097 24.58 142.817 24.62C142.537 24.6733 142.29 24.7 142.077 24.7ZM149.995 24.7C148.888 24.7 147.935 24.4933 147.135 24.08C146.335 23.6667 145.715 23.08 145.275 22.32C144.848 21.56 144.635 20.66 144.635 19.62C144.635 18.6067 144.842 17.72 145.255 16.96C145.682 16.2 146.262 15.6067 146.995 15.18C147.742 14.74 148.588 14.52 149.535 14.52C150.228 14.52 150.848 14.6333 151.395 14.86C151.955 15.0867 152.428 15.4133 152.815 15.84C153.215 16.2667 153.515 16.7867 153.715 17.4C153.928 18 154.035 18.68 154.035 19.44C154.035 19.68 153.948 19.8667 153.775 20C153.615 20.12 153.382 20.18 153.075 20.18H146.655V18.74H152.275L151.955 19.04C151.955 18.4267 151.862 17.9133 151.675 17.5C151.502 17.0867 151.242 16.7733 150.895 16.56C150.562 16.3333 150.142 16.22 149.635 16.22C149.075 16.22 148.595 16.3533 148.195 16.62C147.808 16.8733 147.508 17.24 147.295 17.72C147.095 18.1867 146.995 18.7467 146.995 19.4V19.54C146.995 20.6333 147.248 21.4533 147.755 22C148.275 22.5333 149.035 22.8 150.035 22.8C150.382 22.8 150.768 22.76 151.195 22.68C151.635 22.5867 152.048 22.4333 152.435 22.22C152.715 22.06 152.962 21.9933 153.175 22.02C153.388 22.0333 153.555 22.1067 153.675 22.24C153.808 22.3733 153.888 22.54 153.915 22.74C153.942 22.9267 153.902 23.12 153.795 23.32C153.702 23.52 153.535 23.6933 153.295 23.84C152.828 24.1333 152.288 24.3533 151.675 24.5C151.075 24.6333 150.515 24.7 149.995 24.7ZM159.235 24.7C158.528 24.7 157.895 24.5667 157.335 24.3C156.788 24.02 156.355 23.6467 156.035 23.18C155.728 22.7133 155.575 22.1867 155.575 21.6C155.575 20.88 155.762 20.3133 156.135 19.9C156.508 19.4733 157.115 19.1667 157.955 18.98C158.795 18.7933 159.922 18.7 161.335 18.7H162.335V20.14H161.355C160.528 20.14 159.868 20.18 159.375 20.26C158.882 20.34 158.528 20.48 158.315 20.68C158.115 20.8667 158.015 21.1333 158.015 21.48C158.015 21.92 158.168 22.28 158.475 22.56C158.782 22.84 159.208 22.98 159.755 22.98C160.195 22.98 160.582 22.88 160.915 22.68C161.262 22.4667 161.535 22.18 161.735 21.82C161.935 21.46 162.035 21.0467 162.035 20.58V18.28C162.035 17.6133 161.888 17.1333 161.595 16.84C161.302 16.5467 160.808 16.4 160.115 16.4C159.728 16.4 159.308 16.4467 158.855 16.54C158.415 16.6333 157.948 16.7933 157.455 17.02C157.202 17.14 156.975 17.1733 156.775 17.12C156.588 17.0667 156.442 16.96 156.335 16.8C156.228 16.6267 156.175 16.44 156.175 16.24C156.175 16.04 156.228 15.8467 156.335 15.66C156.442 15.46 156.622 15.3133 156.875 15.22C157.488 14.9667 158.075 14.7867 158.635 14.68C159.208 14.5733 159.728 14.52 160.195 14.52C161.155 14.52 161.942 14.6667 162.555 14.96C163.182 15.2533 163.648 15.7 163.955 16.3C164.262 16.8867 164.415 17.6467 164.415 18.58V23.38C164.415 23.7933 164.315 24.1133 164.115 24.34C163.915 24.5533 163.628 24.66 163.255 24.66C162.882 24.66 162.588 24.5533 162.375 24.34C162.175 24.1133 162.075 23.7933 162.075 23.38V22.42H162.235C162.142 22.8867 161.955 23.2933 161.675 23.64C161.408 23.9733 161.068 24.2333 160.655 24.42C160.242 24.6067 159.768 24.7 159.235 24.7ZM168.232 24.66C167.832 24.66 167.526 24.5533 167.312 24.34C167.099 24.1133 166.992 23.7933 166.992 23.38V15.82C166.992 15.4067 167.099 15.0933 167.312 14.88C167.526 14.6667 167.826 14.56 168.212 14.56C168.599 14.56 168.899 14.6667 169.112 14.88C169.326 15.0933 169.432 15.4067 169.432 15.82V17.28L169.212 16.68C169.479 16.0133 169.892 15.4867 170.452 15.1C171.012 14.7133 171.679 14.52 172.452 14.52C173.239 14.52 173.886 14.7067 174.392 15.08C174.899 15.4533 175.252 16.0267 175.452 16.8H175.172C175.439 16.0933 175.879 15.54 176.492 15.14C177.106 14.7267 177.812 14.52 178.612 14.52C179.359 14.52 179.972 14.6667 180.452 14.96C180.946 15.2533 181.312 15.7 181.552 16.3C181.792 16.8867 181.912 17.6333 181.912 18.54V23.38C181.912 23.7933 181.799 24.1133 181.572 24.34C181.359 24.5533 181.052 24.66 180.652 24.66C180.252 24.66 179.946 24.5533 179.732 24.34C179.519 24.1133 179.412 23.7933 179.412 23.38V18.64C179.412 17.8933 179.286 17.3467 179.032 17C178.792 16.6533 178.379 16.48 177.792 16.48C177.139 16.48 176.626 16.7133 176.252 17.18C175.879 17.6333 175.692 18.2667 175.692 19.08V23.38C175.692 23.7933 175.586 24.1133 175.372 24.34C175.159 24.5533 174.852 24.66 174.452 24.66C174.052 24.66 173.739 24.5533 173.512 24.34C173.299 24.1133 173.192 23.7933 173.192 23.38V18.64C173.192 17.8933 173.066 17.3467 172.812 17C172.572 16.6533 172.166 16.48 171.592 16.48C170.939 16.48 170.426 16.7133 170.052 17.18C169.679 17.6333 169.492 18.2667 169.492 19.08V23.38C169.492 24.2333 169.072 24.66 168.232 24.66Z" fill="black"/>
<path d="M204 21.0938C203.857 21.0938 203.718 21.0701 203.583 21.0229C203.449 20.9757 203.336 20.9127 203.247 20.834L198.296 16.4885C198.099 16.3154 198 16.0949 198 15.8273C198 15.5596 198.099 15.3392 198.296 15.166C198.493 14.9928 198.744 14.9062 199.049 14.9062C199.354 14.9062 199.605 14.9928 199.803 15.166L204 18.8502L208.197 15.166C208.395 14.9928 208.646 14.9062 208.951 14.9062C209.256 14.9062 209.507 14.9928 209.704 15.166C209.901 15.3392 210 15.5596 210 15.8273C210 16.0949 209.901 16.3154 209.704 16.4885L204.753 20.834C204.646 20.9284 204.529 20.9952 204.404 21.0342C204.278 21.0739 204.143 21.0938 204 21.0938Z" fill="black"/>
</svg>
