<svg width="163" height="46" viewBox="0 0 163 46" fill="none" xmlns="http://www.w3.org/2000/svg">
<g clip-path="url(#clip0_2119_22429)">
<path d="M42.4472 0.5H21.7818C19.9125 0.5 18.4241 1.98846 18.4241 3.82308V20.9231H42.4125C44.2472 20.9231 45.7356 19.4346 45.7356 17.6V3.82308C45.7702 1.98846 44.2818 0.5 42.4472 0.5Z" fill="#92C83E"/>
<path d="M25.728 12.3385C26.6265 12.3385 27.3549 11.6101 27.3549 10.7115C27.3549 9.81301 26.6265 9.08461 25.728 9.08461C24.8295 9.08461 24.1011 9.81301 24.1011 10.7115C24.1011 11.6101 24.8295 12.3385 25.728 12.3385Z" fill="white"/>
<path d="M32.0971 12.3385C32.9957 12.3385 33.7241 11.6101 33.7241 10.7115C33.7241 9.81301 32.9957 9.08461 32.0971 9.08461C31.1986 9.08461 30.4702 9.81301 30.4702 10.7115C30.4702 11.6101 31.1986 12.3385 32.0971 12.3385Z" fill="white"/>
<path d="M38.4664 12.3385C39.3649 12.3385 40.0933 11.6101 40.0933 10.7115C40.0933 9.81301 39.3649 9.08461 38.4664 9.08461C37.5679 9.08461 36.8395 9.81301 36.8395 10.7115C36.8395 11.6101 37.5679 12.3385 38.4664 12.3385Z" fill="white"/>
<path d="M4.19722 24.8692C2.36261 24.8692 0.874146 26.3577 0.874146 28.1923V42.1423C0.874146 43.9769 2.36261 45.4654 4.19722 45.4654H24.8626C26.6972 45.4654 28.1857 43.9769 28.1857 42.1423V24.8346H4.19722V24.8692Z" fill="#FBB03B"/>
<path d="M8.14328 36.8115C9.0418 36.8115 9.7702 36.0831 9.7702 35.1846C9.7702 34.2861 9.0418 33.5577 8.14328 33.5577C7.24476 33.5577 6.51636 34.2861 6.51636 35.1846C6.51636 36.0831 7.24476 36.8115 8.14328 36.8115Z" fill="white"/>
<path d="M14.5125 36.8115C15.4111 36.8115 16.1395 36.0831 16.1395 35.1846C16.1395 34.2861 15.4111 33.5577 14.5125 33.5577C13.614 33.5577 12.8856 34.2861 12.8856 35.1846C12.8856 36.0831 13.614 36.8115 14.5125 36.8115Z" fill="white"/>
<path d="M20.8818 36.8115C21.7803 36.8115 22.5087 36.0831 22.5087 35.1846C22.5087 34.2861 21.7803 33.5577 20.8818 33.5577C19.9833 33.5577 19.2549 34.2861 19.2549 35.1846C19.2549 36.0831 19.9833 36.8115 20.8818 36.8115Z" fill="white"/>
<path d="M14.5126 14.0692V20.9577H7.65872C3.85103 20.9577 0.770264 17.8769 0.770264 14.0692C0.770264 10.2615 3.85103 7.18077 7.65872 7.18077C11.4664 7.18077 14.5126 10.2962 14.5126 14.0692Z" fill="#ED1E79"/>
<path d="M32.028 31.7577V24.8692H38.9164C42.7241 24.8692 45.8049 27.95 45.8049 31.7577C45.8049 35.5654 42.7241 38.6462 38.9164 38.6462C35.1087 38.6462 32.028 35.5308 32.028 31.7577Z" fill="#3FA9F5"/>
</g>
<g clip-path="url(#clip1_2119_22429)">
<path d="M62.6464 12.6807H58.2969C57.8047 12.6807 57.4245 12.8116 57.1628 13.0733C56.9011 13.335 56.7703 13.7151 56.7703 14.2074V26.969C56.7703 27.4613 56.9011 27.8414 57.1628 28.1031C57.4245 28.3648 57.8047 28.4957 58.2969 28.4957H62.6464C63.9798 28.4957 65.1576 28.3212 66.1795 27.966C67.2014 27.6171 68.0738 27.0999 68.7842 26.4269C69.4945 25.7539 70.0304 24.9252 70.3981 23.9468C70.7657 22.9685 70.9464 21.8407 70.9464 20.5695C70.9464 18.0271 70.2236 16.0768 68.7842 14.7121C67.3385 13.3599 65.2946 12.6807 62.6464 12.6807ZM67.6064 23.0122C67.3821 23.7101 67.0394 24.2833 66.5845 24.7382C66.1296 25.1931 65.5626 25.5358 64.8771 25.7726C64.1979 26.0032 63.3941 26.1216 62.4656 26.1216H59.6366V15.0548H62.4656C64.2914 15.0548 65.6561 15.5097 66.5721 16.4257C67.4818 17.3355 67.9429 18.7188 67.9429 20.5757C67.9429 21.5042 67.8308 22.3143 67.6064 23.0122Z" fill="black"/>
<path d="M80.5613 13.7089C80.3682 13.2727 80.1314 12.9673 79.8572 12.7804C79.583 12.5935 79.2715 12.5 78.9287 12.5C78.586 12.5 78.2495 12.5935 77.9754 12.7804C77.7012 12.9673 77.4644 13.2789 77.2712 13.7089L71.3515 26.8319C71.202 27.1746 71.1521 27.4862 71.1957 27.7604C71.2393 28.0346 71.3702 28.2589 71.5883 28.4209C71.8064 28.5829 72.093 28.6701 72.4544 28.6701C72.8408 28.6701 73.1399 28.5704 73.3518 28.3773C73.5636 28.1841 73.763 27.8663 73.9562 27.4364L75.0591 24.8317H82.7734L83.8951 27.4364C84.0758 27.8539 84.2814 28.1654 84.512 28.3648C84.7425 28.5642 85.0665 28.6701 85.4903 28.6701C85.833 28.6701 86.1134 28.5891 86.319 28.4334C86.5309 28.2776 86.6555 28.0533 86.6991 27.7728C86.7428 27.4862 86.6867 27.1746 86.5184 26.8319L80.5613 13.7089ZM78.8789 15.7963H78.9225L81.7827 22.551H76.0374L78.8789 15.7963Z" fill="black"/>
<path d="M98.0275 20.3326C98.688 20.0833 99.2301 19.7095 99.6539 19.2047C100.208 18.5442 100.483 17.7404 100.483 16.7808C100.483 15.9271 100.277 15.198 99.8657 14.5811C99.4545 13.9705 98.8625 13.4969 98.0836 13.1666C97.3047 12.8364 96.3638 12.6743 95.2546 12.6743H89.8708C89.3785 12.6743 88.9984 12.8052 88.7367 13.0669C88.475 13.3286 88.3441 13.7087 88.3441 14.201V26.9627C88.3441 27.4549 88.475 27.835 88.7367 28.0967C88.9984 28.3585 89.3785 28.4893 89.8708 28.4893H95.5039C97.1925 28.4893 98.5136 28.103 99.4607 27.3365C100.408 26.5639 100.888 25.4796 100.888 24.0713C100.888 22.9933 100.582 22.121 99.9654 21.448C99.4794 20.9121 98.8251 20.5444 98.0275 20.3326ZM91.1046 14.8553H94.7623C95.7469 14.8553 96.4884 15.0485 96.9744 15.4286C97.4605 15.8087 97.7035 16.3757 97.7035 17.1235C97.7035 17.8712 97.4605 18.4383 96.9744 18.8184C96.4884 19.1985 95.7531 19.3917 94.7623 19.3917H91.1046V14.8553ZM97.3857 25.7226C96.9059 26.1214 96.1581 26.3146 95.1424 26.3146H91.1046V21.5601H95.1424C96.1581 21.5601 96.9059 21.7533 97.3857 22.1459C97.8655 22.5322 98.1023 23.1304 98.1023 23.9405C98.1023 24.7506 97.8655 25.3301 97.3857 25.7226Z" fill="black"/>
<path d="M112.172 17.3478C111.724 17.3478 111.381 17.4662 111.138 17.6967C110.901 17.9273 110.777 18.2825 110.777 18.7623V23.6975C110.777 24.5511 110.54 25.2366 110.06 25.7475C109.58 26.2647 108.97 26.5202 108.222 26.5202C107.536 26.5202 107.032 26.3333 106.72 25.9594C106.408 25.5855 106.246 25.0123 106.246 24.2333V18.7623C106.246 18.2825 106.122 17.9273 105.879 17.6967C105.63 17.4662 105.287 17.3478 104.838 17.3478C104.39 17.3478 104.047 17.4662 103.804 17.6967C103.567 17.9273 103.442 18.2825 103.442 18.7623V24.1897C103.442 25.193 103.586 26.028 103.879 26.7009C104.171 27.3739 104.614 27.8786 105.212 28.2151C105.81 28.5516 106.564 28.7199 107.48 28.7199C108.396 28.7199 109.1 28.5018 109.736 28.0718C110.191 27.7602 110.558 27.3552 110.845 26.8567V27.2431C110.845 27.7042 110.964 28.0594 111.207 28.3086C111.443 28.5579 111.78 28.6762 112.216 28.6762C113.126 28.6762 113.587 28.1964 113.587 27.2431V18.7623C113.587 18.2825 113.462 17.9273 113.219 17.6967C112.97 17.4662 112.627 17.3478 112.179 17.3478H112.172Z" fill="black"/>
<path d="M125.358 17.996C124.641 17.5349 123.794 17.2981 122.822 17.2981C121.912 17.2981 121.108 17.5224 120.423 17.9711C119.931 18.2889 119.563 18.6814 119.301 19.1488V13.9145C119.301 13.4534 119.177 13.0982 118.934 12.8614C118.69 12.6246 118.342 12.5 117.893 12.5C117.444 12.5 117.102 12.6184 116.858 12.8614C116.622 13.0982 116.497 13.4534 116.497 13.9145V27.237C116.497 27.6981 116.615 28.0533 116.858 28.3025C117.095 28.5518 117.444 28.6701 117.893 28.6701C118.342 28.6701 118.666 28.5455 118.902 28.3025C119.139 28.0533 119.264 27.6981 119.264 27.237V26.7696C119.519 27.2681 119.893 27.6856 120.398 28.0221C121.096 28.4832 121.906 28.72 122.834 28.72C123.763 28.72 124.635 28.4894 125.358 28.0221C126.081 27.561 126.648 26.8942 127.053 26.0343C127.458 25.1744 127.657 24.1587 127.657 22.9935C127.657 21.8282 127.458 20.8001 127.053 19.9526C126.648 19.1051 126.087 18.4509 125.37 17.9897L125.358 17.996ZM124.473 24.9812C124.243 25.5109 123.919 25.9097 123.495 26.1839C123.071 26.458 122.591 26.5889 122.037 26.5889C121.202 26.5889 120.529 26.2836 120.018 25.6791C119.507 25.0747 119.258 24.1774 119.258 22.9997C119.258 22.2083 119.376 21.5478 119.606 21.0119C119.837 20.4823 120.161 20.0835 120.585 19.8217C121.002 19.56 121.488 19.4292 122.043 19.4292C122.878 19.4292 123.551 19.722 124.062 20.314C124.573 20.906 124.822 21.7971 124.822 22.9935C124.822 23.7848 124.704 24.4453 124.473 24.9812Z" fill="black"/>
<path d="M138.817 17.996C138.101 17.5349 137.253 17.2981 136.281 17.2981C135.372 17.2981 134.568 17.5224 133.882 17.9711C133.39 18.2889 133.022 18.6814 132.761 19.1488V13.9145C132.761 13.4534 132.636 13.0982 132.393 12.8614C132.15 12.6246 131.801 12.5 131.352 12.5C130.904 12.5 130.561 12.6184 130.318 12.8614C130.081 13.0982 129.957 13.4534 129.957 13.9145V27.237C129.957 27.6981 130.075 28.0533 130.318 28.3025C130.555 28.5518 130.904 28.6701 131.352 28.6701C131.801 28.6701 132.125 28.5455 132.362 28.3025C132.599 28.0533 132.723 27.6981 132.723 27.237V26.7696C132.979 27.2681 133.353 27.6856 133.857 28.0221C134.555 28.4832 135.365 28.72 136.294 28.72C137.222 28.72 138.095 28.4894 138.817 28.0221C139.54 27.561 140.107 26.8942 140.512 26.0343C140.917 25.1744 141.117 24.1587 141.117 22.9935C141.117 21.8282 140.917 20.8001 140.512 19.9526C140.107 19.1051 139.546 18.4509 138.83 17.9897L138.817 17.996ZM137.933 24.9812C137.702 25.5109 137.378 25.9097 136.954 26.1839C136.531 26.458 136.051 26.5889 135.496 26.5889C134.661 26.5889 133.988 26.2836 133.477 25.6791C132.966 25.0747 132.717 24.1774 132.717 22.9997C132.717 22.2083 132.835 21.5478 133.066 21.0119C133.297 20.4823 133.621 20.0835 134.044 19.8217C134.462 19.56 134.948 19.4292 135.502 19.4292C136.337 19.4292 137.01 19.722 137.521 20.314C138.032 20.906 138.282 21.7971 138.282 22.9935C138.282 23.7848 138.163 24.4453 137.933 24.9812Z" fill="black"/>
<path d="M148.557 26.3646C148.451 26.377 148.345 26.3895 148.245 26.3957C148.139 26.402 148.027 26.4082 147.909 26.4082C147.373 26.4082 146.955 26.2462 146.663 25.9159C146.37 25.5857 146.226 25.0809 146.226 24.3893V13.9145C146.226 13.4534 146.102 13.0982 145.859 12.8614C145.616 12.6246 145.267 12.5 144.818 12.5C144.37 12.5 144.027 12.6184 143.784 12.8614C143.547 13.0982 143.422 13.4534 143.422 13.9145V24.5264C143.422 25.9035 143.734 26.9441 144.363 27.6545C144.993 28.3648 145.927 28.72 147.167 28.72C147.329 28.72 147.498 28.7138 147.66 28.6951C147.822 28.6826 147.984 28.6639 148.133 28.6515C148.476 28.6078 148.725 28.477 148.875 28.2713C149.024 28.0595 149.099 27.7728 149.099 27.399C149.099 26.9628 149.062 26.6761 148.987 26.5328C148.912 26.3895 148.769 26.3334 148.563 26.3646H148.557Z" fill="black"/>
<path d="M159.437 25.704C159.2 25.6791 158.919 25.7601 158.608 25.9408C158.172 26.1776 157.717 26.3459 157.231 26.4456C156.745 26.5453 156.308 26.5889 155.916 26.5889C154.794 26.5889 153.947 26.2836 153.367 25.6791C152.912 25.1993 152.645 24.5201 152.551 23.6477H159.324C159.667 23.6477 159.935 23.5792 160.122 23.4359C160.309 23.2925 160.402 23.0869 160.402 22.819C160.402 21.9653 160.284 21.1988 160.053 20.5196C159.823 19.8404 159.486 19.2609 159.044 18.7811C158.602 18.3013 158.072 17.9336 157.449 17.6844C156.826 17.4289 156.128 17.3043 155.349 17.3043C154.29 17.3043 153.342 17.5473 152.514 18.0333C151.685 18.5194 151.031 19.1861 150.563 20.0398C150.09 20.8935 149.859 21.8843 149.859 23.0246C149.859 24.1649 150.102 25.1993 150.588 26.053C151.074 26.9067 151.766 27.561 152.663 28.0283C153.561 28.4894 154.632 28.7262 155.872 28.7262C156.458 28.7262 157.087 28.6452 157.767 28.4894C158.446 28.3336 159.05 28.0906 159.574 27.7604C159.842 27.5984 160.035 27.399 160.147 27.1746C160.259 26.9503 160.303 26.7322 160.272 26.5141C160.24 26.296 160.153 26.1153 160.016 25.9658C159.873 25.8162 159.686 25.729 159.443 25.7103L159.437 25.704ZM153.86 19.6472C154.302 19.3544 154.838 19.2111 155.461 19.2111C156.028 19.2111 156.502 19.3357 156.888 19.5787C157.268 19.828 157.561 20.1831 157.76 20.6443C157.929 21.0306 158.022 21.4979 158.053 22.0338H152.551C152.607 21.6101 152.701 21.2175 152.85 20.881C153.081 20.3514 153.417 19.9401 153.86 19.6472Z" fill="black"/>
</g>
<defs>
<clipPath id="clip0_2119_22429">
<rect width="45" height="45" fill="white" transform="translate(0.770264 0.5)"/>
</clipPath>
<clipPath id="clip1_2119_22429">
<rect width="105.502" height="16.22" fill="white" transform="translate(56.7703 12.5)"/>
</clipPath>
</defs>
</svg>
