<svg width="23" height="21" viewBox="0 0 23 21" fill="none" xmlns="http://www.w3.org/2000/svg">
<path d="M10.96 21C9.57663 21 8.27663 20.7375 7.05996 20.2125C5.84329 19.6875 4.78496 18.975 3.88496 18.075C2.98496 17.175 2.27246 16.1167 1.74746 14.9C1.22246 13.6833 0.959961 12.3833 0.959961 11C0.959961 9.61667 1.22246 8.31667 1.74746 7.1C2.27246 5.88333 2.98496 4.825 3.88496 3.925C4.78496 3.025 5.84329 2.3125 7.05996 1.7875C8.27663 1.2625 9.57663 1 10.96 1C11.71 1 12.4391 1.07917 13.1475 1.2375C13.8558 1.39583 14.5266 1.625 15.16 1.925C15.0933 2.09167 15.0433 2.26667 15.01 2.45C14.9766 2.63333 14.96 2.81667 14.96 3C14.96 3.23333 14.985 3.45417 15.035 3.6625C15.085 3.87083 15.1516 4.06667 15.235 4.25C14.6183 3.86667 13.9516 3.5625 13.235 3.3375C12.5183 3.1125 11.76 3 10.96 3C8.74329 3 6.85579 3.77917 5.29746 5.3375C3.73913 6.89583 2.95996 8.78333 2.95996 11C2.95996 13.2167 3.73913 15.1042 5.29746 16.6625C6.85579 18.2208 8.74329 19 10.96 19C13.1766 19 15.0641 18.2208 16.6225 16.6625C18.1808 15.1042 18.96 13.2167 18.96 11C18.96 10.3333 18.8808 9.69167 18.7225 9.075C18.5641 8.45833 18.3433 7.875 18.06 7.325C18.3266 7.54167 18.6183 7.70833 18.935 7.825C19.2516 7.94167 19.5933 8 19.96 8C20.0433 8 20.1308 7.99583 20.2225 7.9875C20.3141 7.97917 20.4016 7.96667 20.485 7.95C20.635 8.43333 20.7516 8.92917 20.835 9.4375C20.9183 9.94583 20.96 10.4667 20.96 11C20.96 12.3833 20.6975 13.6833 20.1725 14.9C19.6475 16.1167 18.935 17.175 18.035 18.075C17.135 18.975 16.0766 19.6875 14.86 20.2125C13.6433 20.7375 12.3433 21 10.96 21ZM14.46 10C14.8933 10 15.2516 9.85833 15.535 9.575C15.8183 9.29167 15.96 8.93333 15.96 8.5C15.96 8.06667 15.8183 7.70833 15.535 7.425C15.2516 7.14167 14.8933 7 14.46 7C14.0266 7 13.6683 7.14167 13.385 7.425C13.1016 7.70833 12.96 8.06667 12.96 8.5C12.96 8.93333 13.1016 9.29167 13.385 9.575C13.6683 9.85833 14.0266 10 14.46 10ZM7.45996 10C7.89329 10 8.25163 9.85833 8.53496 9.575C8.81829 9.29167 8.95996 8.93333 8.95996 8.5C8.95996 8.06667 8.81829 7.70833 8.53496 7.425C8.25163 7.14167 7.89329 7 7.45996 7C7.02663 7 6.66829 7.14167 6.38496 7.425C6.10163 7.70833 5.95996 8.06667 5.95996 8.5C5.95996 8.93333 6.10163 9.29167 6.38496 9.575C6.66829 9.85833 7.02663 10 7.45996 10ZM10.96 16.5C12.1433 16.5 13.1891 16.175 14.0975 15.525C15.0058 14.875 15.66 14.0333 16.06 13H5.85996C6.25996 14.0333 6.91413 14.875 7.82246 15.525C8.73079 16.175 9.77663 16.5 10.96 16.5ZM18.96 4H17.96C17.6766 4 17.4391 3.90417 17.2475 3.7125C17.0558 3.52083 16.96 3.28333 16.96 3C16.96 2.71667 17.0558 2.47917 17.2475 2.2875C17.4391 2.09583 17.6766 2 17.96 2H18.96V1C18.96 0.716667 19.0558 0.479167 19.2475 0.2875C19.4391 0.0958333 19.6766 0 19.96 0C20.2433 0 20.4808 0.0958333 20.6725 0.2875C20.8641 0.479167 20.96 0.716667 20.96 1V2H21.96C22.2433 2 22.4808 2.09583 22.6725 2.2875C22.8641 2.47917 22.96 2.71667 22.96 3C22.96 3.28333 22.8641 3.52083 22.6725 3.7125C22.4808 3.90417 22.2433 4 21.96 4H20.96V5C20.96 5.28333 20.8641 5.52083 20.6725 5.7125C20.4808 5.90417 20.2433 6 19.96 6C19.6766 6 19.4391 5.90417 19.2475 5.7125C19.0558 5.52083 18.96 5.28333 18.96 5V4Z" fill="black"/>
</svg>
