<svg width="14" height="10" viewBox="0 0 14 10" fill="none" xmlns="http://www.w3.org/2000/svg">
<path d="M7 9.09375C6.83259 9.09375 6.67061 9.0625 6.51408 9C6.35671 8.9375 6.22571 8.85417 6.12108 8.75L0.345291 3C0.115097 2.77083 0 2.47917 0 2.125C0 1.77083 0.115097 1.47917 0.345291 1.25C0.575485 1.02083 0.86846 0.90625 1.22422 0.90625C1.57997 0.90625 1.87294 1.02083 2.10314 1.25L7 6.125L11.8969 1.25C12.1271 1.02083 12.42 0.90625 12.7758 0.90625C13.1315 0.90625 13.4245 1.02083 13.6547 1.25C13.8849 1.47917 14 1.77083 14 2.125C14 2.47917 13.8849 2.77083 13.6547 3L7.87892 8.75C7.75336 8.875 7.61734 8.96333 7.47085 9.015C7.32436 9.0675 7.16741 9.09375 7 9.09375Z" fill="black"/>
</svg>
