<svg width="14" height="20" viewBox="0 0 14 20" fill="none" xmlns="http://www.w3.org/2000/svg">
<g clip-path="url(#clip0_114942_20883)">
<path d="M6.91841 8.37334C6.91841 8.37334 5.39706 8.65779 6.64674 6.1689C7.5523 4.35557 7.46175 2.25779 6.64674 1.15557C5.34273 -0.639989 2.77093 -0.0533226 3.0426 0.977788C3.94816 4.49779 1.90159 5.54668 0.833028 7.75112C-0.253647 10.0089 -0.126868 13.1911 0.362136 16.0356C0.670027 17.8133 1.46692 20 4.36472 20H8.38542L6.91841 8.37334Z" fill="#FFDD67"/>
<path d="M4.81763 19.5022C1.91983 19.5022 1.26783 17.3156 0.959937 15.5378C0.470933 12.6934 0.380377 10.4356 1.34027 8.12447C2.37262 5.63558 3.45929 5.56447 3.45929 0.622245C3.45929 0.373356 3.60418 0.213356 3.73096 0.106689C3.24196 0.266689 2.97029 0.533356 2.97029 0.942245C2.97029 4.64002 1.88361 5.54669 0.815047 7.76891C-0.253517 10.0089 -0.126738 13.1911 0.362266 16.0356C0.670157 17.8134 1.46705 20 4.36485 20H8.38555V19.5022H4.79952H4.81763Z" fill="#EBA352"/>
<path d="M11.8991 11.271H6.91851C5.17983 11.271 5.17983 8.35547 6.91851 8.35547H11.8991C13.6378 8.35547 13.6378 11.271 11.8991 11.271Z" fill="#FFDD67"/>
<path d="M12.2795 10.7912H7.29893C6.1217 10.7912 5.74137 9.4756 6.15792 8.60449C5.23425 9.29783 5.4697 11.2712 6.90049 11.2712H11.8811C12.4425 11.2712 12.8229 10.9689 13.0221 10.5423C12.8229 10.6845 12.5693 10.7912 12.2795 10.7912Z" fill="#EBA352"/>
<path d="M12.4243 14.1866H6.44759C4.3648 14.1866 4.3648 11.271 6.44759 11.271H12.4243C14.5071 11.271 14.5071 14.1866 12.4243 14.1866Z" fill="#FFDD67"/>
<path d="M12.8951 13.7067H6.91838C5.50571 13.7067 5.05292 12.3911 5.54193 11.52C4.41903 12.2134 4.72692 14.1867 6.44749 14.1867H12.4242C13.0943 14.1867 13.5471 13.8845 13.8007 13.4578C13.5652 13.6 13.2573 13.7067 12.8951 13.7067Z" fill="#EBA352"/>
<path d="M11.8628 17.1023H6.80978C5.05299 17.1023 5.05299 14.1868 6.80978 14.1868H11.8628C13.6196 14.1868 13.6196 17.1023 11.8628 17.1023Z" fill="#FFDD67"/>
<path d="M12.2613 16.6222H7.20831C6.01296 16.6222 5.63263 15.3067 6.04919 14.4355C5.1074 15.1289 5.36096 17.1022 6.80986 17.1022H11.8629C12.4425 17.1022 12.8228 16.8 13.022 16.3733C12.8228 16.5155 12.5692 16.6222 12.2613 16.6222Z" fill="#EBA352"/>
<path d="M11.3194 20H8.05941C6.17584 20 6.17584 17.0845 8.05941 17.0845H11.3194C13.203 17.0845 13.203 20 11.3194 20Z" fill="#FFDD67"/>
<path d="M11.7542 19.5199H8.49413C7.22634 19.5199 6.80978 18.2044 7.26257 17.3333C6.24833 18.0266 6.52 19.9999 8.07757 19.9999H11.3376C11.9534 19.9999 12.3518 19.6977 12.5692 19.271C12.3518 19.4133 12.0802 19.5199 11.7542 19.5199Z" fill="#EBA352"/>
</g>
<defs>
<clipPath id="clip0_114942_20883">
<rect width="14" height="20" fill="white"/>
</clipPath>
</defs>
</svg>
