<svg width="22" height="24" viewBox="0 0 22 24" fill="none" xmlns="http://www.w3.org/2000/svg">
<path d="M4.65649 23.9062C4.23359 23.9062 3.88859 23.7266 3.6215 23.3672C3.3544 23.0078 3.2765 22.6125 3.38779 22.1812L4.32262 18.1562H1.35119C0.906029 18.1562 0.549902 17.9708 0.282807 17.5999C0.0157114 17.2281 -0.0621913 16.8146 0.0490984 16.3594C0.115872 16.024 0.271678 15.7604 0.516515 15.5687C0.761352 15.3771 1.03958 15.2812 1.35119 15.2812H4.99036L6.32583 9.53125H2.68666C2.2415 9.53125 1.88538 9.34581 1.61828 8.97494C1.35119 8.6031 1.27328 8.18958 1.38457 7.73438C1.45135 7.39896 1.60715 7.13542 1.85199 6.94375C2.09683 6.75208 2.37505 6.65625 2.68666 6.65625H6.99357L8.09534 1.94844C8.16211 1.63698 8.30679 1.38542 8.52937 1.19375C8.75195 1.00208 9.01904 0.90625 9.33066 0.90625C9.75356 0.90625 10.0986 1.08594 10.3656 1.44531C10.6327 1.80469 10.7106 2.2 10.5994 2.63125L9.66452 6.65625H15.0064L16.1082 1.94844C16.175 1.63698 16.3196 1.38542 16.5422 1.19375C16.7648 1.00208 17.0319 0.90625 17.3435 0.90625C17.7664 0.90625 18.1114 1.08594 18.3785 1.44531C18.6456 1.80469 18.7235 2.2 18.6122 2.63125L17.6774 6.65625H20.6488C21.094 6.65625 21.4501 6.84169 21.7172 7.21256C21.9843 7.5844 22.0622 7.99792 21.9509 8.45312C21.8841 8.78854 21.7283 9.05208 21.4835 9.24375C21.2386 9.43542 20.9604 9.53125 20.6488 9.53125H17.0096L15.6742 15.2812H19.3133C19.7585 15.2812 20.1146 15.4667 20.3817 15.8376C20.6488 16.2094 20.7267 16.6229 20.6154 17.0781C20.5487 17.4135 20.3928 17.6771 20.148 17.8688C19.9032 18.0604 19.6249 18.1562 19.3133 18.1562H15.0064L13.9047 22.8641C13.8379 23.1755 13.6932 23.4271 13.4706 23.6187C13.2481 23.8104 12.981 23.9062 12.6693 23.9062C12.2464 23.9062 11.9014 23.7266 11.6344 23.3672C11.3673 23.0078 11.2894 22.6125 11.4006 22.1812L12.3355 18.1562H6.99357L5.89181 22.8641C5.82503 23.1755 5.68035 23.4271 5.45778 23.6187C5.2352 23.8104 4.9681 23.9062 4.65649 23.9062ZM7.66131 15.2812H13.0032L14.3387 9.53125H8.99679L7.66131 15.2812Z" fill="black"/>
</svg>
