<svg width="85" height="15" viewBox="0 0 85 15" fill="none" xmlns="http://www.w3.org/2000/svg">
<path d="M7.1 14.7C5.63333 14.7 4.37333 14.4067 3.32 13.82C2.28 13.22 1.48 12.38 0.92 11.3C0.36 10.2067 0.08 8.92 0.08 7.44C0.08 6.33333 0.24 5.34 0.56 4.46C0.88 3.56667 1.34 2.80667 1.94 2.18C2.54 1.54 3.27333 1.05333 4.14 0.72C5.02 0.373333 6.00667 0.199999 7.1 0.199999C7.83333 0.199999 8.55333 0.293333 9.26 0.479999C9.96667 0.666666 10.5867 0.933333 11.12 1.28C11.4 1.45333 11.5867 1.66667 11.68 1.92C11.7733 2.16 11.7933 2.4 11.74 2.64C11.6867 2.86667 11.5733 3.06 11.4 3.22C11.24 3.38 11.0333 3.47333 10.78 3.5C10.54 3.51333 10.2733 3.42667 9.98 3.24C9.56667 2.97333 9.12 2.78 8.64 2.66C8.16 2.54 7.67333 2.48 7.18 2.48C6.23333 2.48 5.43333 2.67333 4.78 3.06C4.12667 3.44667 3.63333 4.00667 3.3 4.74C2.96667 5.47333 2.8 6.37333 2.8 7.44C2.8 8.49333 2.96667 9.39333 3.3 10.14C3.63333 10.8867 4.12667 11.4533 4.78 11.84C5.43333 12.2267 6.23333 12.42 7.18 12.42C7.68667 12.42 8.18667 12.36 8.68 12.24C9.17333 12.1067 9.64 11.9067 10.08 11.64C10.3733 11.4667 10.6333 11.3933 10.86 11.42C11.1 11.4333 11.3 11.5133 11.46 11.66C11.62 11.8067 11.7267 11.9933 11.78 12.22C11.8333 12.4333 11.82 12.66 11.74 12.9C11.66 13.1267 11.5 13.3267 11.26 13.5C10.7267 13.8867 10.0867 14.1867 9.34 14.4C8.60667 14.6 7.86 14.7 7.1 14.7ZM15.1338 14.66C14.7338 14.66 14.4271 14.5533 14.2138 14.34C14.0004 14.1133 13.8938 13.7933 13.8938 13.38V1.5C13.8938 1.08667 14.0004 0.773332 14.2138 0.559999C14.4271 0.346666 14.7338 0.239999 15.1338 0.239999C15.5338 0.239999 15.8404 0.346666 16.0538 0.559999C16.2804 0.773332 16.3938 1.08667 16.3938 1.5V6.68H16.1138C16.4071 5.97333 16.8604 5.44 17.4738 5.08C18.1004 4.70667 18.8071 4.52 19.5938 4.52C20.3804 4.52 21.0271 4.66667 21.5338 4.96C22.0404 5.25333 22.4204 5.7 22.6738 6.3C22.9271 6.88667 23.0538 7.63333 23.0538 8.54V13.38C23.0538 13.7933 22.9471 14.1133 22.7338 14.34C22.5204 14.5533 22.2138 14.66 21.8138 14.66C21.4138 14.66 21.1004 14.5533 20.8738 14.34C20.6604 14.1133 20.5538 13.7933 20.5538 13.38V8.66C20.5538 7.9 20.4071 7.34667 20.1138 7C19.8338 6.65333 19.3938 6.48 18.7938 6.48C18.0604 6.48 17.4738 6.71333 17.0338 7.18C16.6071 7.63333 16.3938 8.24 16.3938 9V13.38C16.3938 14.2333 15.9738 14.66 15.1338 14.66ZM28.813 14.7C28.1063 14.7 27.473 14.5667 26.913 14.3C26.3663 14.02 25.933 13.6467 25.613 13.18C25.3063 12.7133 25.153 12.1867 25.153 11.6C25.153 10.88 25.3396 10.3133 25.713 9.9C26.0863 9.47333 26.693 9.16667 27.533 8.98C28.373 8.79333 29.4996 8.7 30.913 8.7H31.913V10.14H30.933C30.1063 10.14 29.4463 10.18 28.953 10.26C28.4596 10.34 28.1063 10.48 27.893 10.68C27.693 10.8667 27.593 11.1333 27.593 11.48C27.593 11.92 27.7463 12.28 28.053 12.56C28.3596 12.84 28.7863 12.98 29.333 12.98C29.773 12.98 30.1596 12.88 30.493 12.68C30.8396 12.4667 31.113 12.18 31.313 11.82C31.513 11.46 31.613 11.0467 31.613 10.58V8.28C31.613 7.61333 31.4663 7.13333 31.173 6.84C30.8796 6.54667 30.3863 6.4 29.693 6.4C29.3063 6.4 28.8863 6.44667 28.433 6.54C27.993 6.63333 27.5263 6.79333 27.033 7.02C26.7796 7.14 26.553 7.17333 26.353 7.12C26.1663 7.06667 26.0196 6.96 25.913 6.8C25.8063 6.62667 25.753 6.44 25.753 6.24C25.753 6.04 25.8063 5.84667 25.913 5.66C26.0196 5.46 26.1996 5.31333 26.453 5.22C27.0663 4.96667 27.653 4.78667 28.213 4.68C28.7863 4.57333 29.3063 4.52 29.773 4.52C30.733 4.52 31.5196 4.66667 32.133 4.96C32.7596 5.25333 33.2263 5.7 33.533 6.3C33.8396 6.88667 33.993 7.64667 33.993 8.58V13.38C33.993 13.7933 33.893 14.1133 33.693 14.34C33.493 14.5533 33.2063 14.66 32.833 14.66C32.4596 14.66 32.1663 14.5533 31.953 14.34C31.753 14.1133 31.653 13.7933 31.653 13.38V12.42H31.813C31.7196 12.8867 31.533 13.2933 31.253 13.64C30.9863 13.9733 30.6463 14.2333 30.233 14.42C29.8196 14.6067 29.3463 14.7 28.813 14.7ZM37.7705 14.66C37.3705 14.66 37.0638 14.5533 36.8505 14.34C36.6371 14.1133 36.5305 13.7933 36.5305 13.38V5.82C36.5305 5.40667 36.6371 5.09333 36.8505 4.88C37.0638 4.66667 37.3638 4.56 37.7505 4.56C38.1371 4.56 38.4371 4.66667 38.6505 4.88C38.8638 5.09333 38.9705 5.40667 38.9705 5.82V7.18L38.7505 6.68C39.0438 5.97333 39.4971 5.44 40.1105 5.08C40.7371 4.70667 41.4438 4.52 42.2305 4.52C43.0171 4.52 43.6638 4.66667 44.1705 4.96C44.6771 5.25333 45.0571 5.7 45.3105 6.3C45.5638 6.88667 45.6905 7.63333 45.6905 8.54V13.38C45.6905 13.7933 45.5838 14.1133 45.3705 14.34C45.1571 14.5533 44.8505 14.66 44.4505 14.66C44.0505 14.66 43.7371 14.5533 43.5105 14.34C43.2971 14.1133 43.1905 13.7933 43.1905 13.38V8.66C43.1905 7.9 43.0438 7.34667 42.7505 7C42.4705 6.65333 42.0305 6.48 41.4305 6.48C40.6971 6.48 40.1105 6.71333 39.6705 7.18C39.2438 7.63333 39.0305 8.24 39.0305 9V13.38C39.0305 14.2333 38.6105 14.66 37.7705 14.66ZM49.4697 14.66C49.0697 14.66 48.763 14.5533 48.5497 14.34C48.3364 14.1133 48.2297 13.7933 48.2297 13.38V5.82C48.2297 5.40667 48.3364 5.09333 48.5497 4.88C48.763 4.66667 49.063 4.56 49.4497 4.56C49.8364 4.56 50.1364 4.66667 50.3497 4.88C50.563 5.09333 50.6697 5.40667 50.6697 5.82V7.18L50.4497 6.68C50.743 5.97333 51.1964 5.44 51.8097 5.08C52.4364 4.70667 53.143 4.52 53.9297 4.52C54.7164 4.52 55.363 4.66667 55.8697 4.96C56.3764 5.25333 56.7564 5.7 57.0097 6.3C57.263 6.88667 57.3897 7.63333 57.3897 8.54V13.38C57.3897 13.7933 57.283 14.1133 57.0697 14.34C56.8564 14.5533 56.5497 14.66 56.1497 14.66C55.7497 14.66 55.4364 14.5533 55.2097 14.34C54.9964 14.1133 54.8897 13.7933 54.8897 13.38V8.66C54.8897 7.9 54.743 7.34667 54.4497 7C54.1697 6.65333 53.7297 6.48 53.1297 6.48C52.3964 6.48 51.8097 6.71333 51.3697 7.18C50.943 7.63333 50.7297 8.24 50.7297 9V13.38C50.7297 14.2333 50.3097 14.66 49.4697 14.66ZM64.7489 14.7C63.6422 14.7 62.6889 14.4933 61.8889 14.08C61.0889 13.6667 60.4689 13.08 60.0289 12.32C59.6022 11.56 59.3889 10.66 59.3889 9.62C59.3889 8.60667 59.5956 7.72 60.0089 6.96C60.4356 6.2 61.0156 5.60667 61.7489 5.18C62.4956 4.74 63.3422 4.52 64.2889 4.52C64.9822 4.52 65.6022 4.63333 66.1489 4.86C66.7089 5.08667 67.1822 5.41333 67.5689 5.84C67.9689 6.26667 68.2689 6.78667 68.4689 7.4C68.6822 8 68.7889 8.68 68.7889 9.44C68.7889 9.68 68.7022 9.86667 68.5289 10C68.3689 10.12 68.1356 10.18 67.8289 10.18H61.4089V8.74H67.0289L66.7089 9.04C66.7089 8.42667 66.6156 7.91333 66.4289 7.5C66.2556 7.08667 65.9956 6.77333 65.6489 6.56C65.3156 6.33333 64.8956 6.22 64.3889 6.22C63.8289 6.22 63.3489 6.35333 62.9489 6.62C62.5622 6.87333 62.2622 7.24 62.0489 7.72C61.8489 8.18667 61.7489 8.74667 61.7489 9.4V9.54C61.7489 10.6333 62.0022 11.4533 62.5089 12C63.0289 12.5333 63.7889 12.8 64.7889 12.8C65.1356 12.8 65.5222 12.76 65.9489 12.68C66.3889 12.5867 66.8022 12.4333 67.1889 12.22C67.4689 12.06 67.7156 11.9933 67.9289 12.02C68.1422 12.0333 68.3089 12.1067 68.4289 12.24C68.5622 12.3733 68.6422 12.54 68.6689 12.74C68.6956 12.9267 68.6556 13.12 68.5489 13.32C68.4556 13.52 68.2889 13.6933 68.0489 13.84C67.5822 14.1333 67.0422 14.3533 66.4289 14.5C65.8289 14.6333 65.2689 14.7 64.7489 14.7ZM74.1088 14.7C73.0021 14.7 72.1688 14.3867 71.6088 13.76C71.0488 13.12 70.7688 12.1867 70.7688 10.96V1.5C70.7688 1.08667 70.8754 0.773332 71.0888 0.559999C71.3021 0.346666 71.6088 0.239999 72.0088 0.239999C72.4088 0.239999 72.7154 0.346666 72.9288 0.559999C73.1554 0.773332 73.2688 1.08667 73.2688 1.5V10.84C73.2688 11.4533 73.3954 11.9067 73.6488 12.2C73.9154 12.4933 74.2888 12.64 74.7688 12.64C74.8754 12.64 74.9754 12.64 75.0688 12.64C75.1621 12.6267 75.2554 12.6133 75.3487 12.6C75.5354 12.5733 75.6621 12.6267 75.7288 12.76C75.7954 12.88 75.8288 13.1333 75.8288 13.52C75.8288 13.8533 75.7621 14.1133 75.6288 14.3C75.4954 14.4867 75.2754 14.6 74.9688 14.64C74.8354 14.6533 74.6954 14.6667 74.5488 14.68C74.4021 14.6933 74.2554 14.7 74.1088 14.7ZM80.6378 14.7C80.0645 14.7 79.4578 14.64 78.8178 14.52C78.1778 14.4 77.6045 14.1933 77.0978 13.9C76.8845 13.7667 76.7311 13.6133 76.6378 13.44C76.5578 13.2533 76.5245 13.0733 76.5378 12.9C76.5645 12.7133 76.6311 12.5533 76.7378 12.42C76.8578 12.2867 77.0045 12.2 77.1778 12.16C77.3645 12.12 77.5645 12.1533 77.7778 12.26C78.3111 12.5133 78.8111 12.6933 79.2778 12.8C79.7445 12.8933 80.2045 12.94 80.6578 12.94C81.2978 12.94 81.7711 12.8333 82.0778 12.62C82.3978 12.3933 82.5578 12.1 82.5578 11.74C82.5578 11.4333 82.4511 11.2 82.2378 11.04C82.0378 10.8667 81.7311 10.74 81.3178 10.66L79.3178 10.28C78.4911 10.12 77.8578 9.82 77.4178 9.38C76.9911 8.92667 76.7778 8.34667 76.7778 7.64C76.7778 7 76.9511 6.44667 77.2978 5.98C77.6578 5.51333 78.1511 5.15333 78.7778 4.9C79.4045 4.64667 80.1245 4.52 80.9378 4.52C81.5245 4.52 82.0711 4.58667 82.5778 4.72C83.0978 4.84 83.5978 5.03333 84.0778 5.3C84.2778 5.40667 84.4111 5.54667 84.4778 5.72C84.5578 5.89333 84.5778 6.07333 84.5378 6.26C84.4978 6.43333 84.4178 6.59333 84.2978 6.74C84.1778 6.87333 84.0245 6.96 83.8378 7C83.6645 7.02667 83.4645 6.98667 83.2378 6.88C82.8245 6.66667 82.4245 6.51333 82.0378 6.42C81.6645 6.32667 81.3045 6.28 80.9578 6.28C80.3045 6.28 79.8178 6.39333 79.4978 6.62C79.1911 6.84667 79.0378 7.14667 79.0378 7.52C79.0378 7.8 79.1311 8.03333 79.3178 8.22C79.5045 8.40667 79.7911 8.53333 80.1778 8.6L82.1778 8.98C83.0445 9.14 83.6978 9.43333 84.1378 9.86C84.5911 10.2867 84.8178 10.86 84.8178 11.58C84.8178 12.5533 84.4378 13.32 83.6778 13.88C82.9178 14.4267 81.9045 14.7 80.6378 14.7Z" fill="black"/>
</svg>
